<svg width="209" height="32" viewBox="0 0 209 32" fill="none" xmlns="http://www.w3.org/2000/svg">
<g clip-path="url(#clip0_501_5)">
<path fill-rule="evenodd" clip-rule="evenodd" d="M37.7759 19.122C37.2105 19.4747 36.5446 19.5184 36.0385 19.2367C35.3956 18.8784 35.0421 18.0394 35.0421 16.8726V13.3815C35.0421 11.6956 34.3668 10.496 33.2375 10.1721C31.3238 9.62185 29.8845 11.9329 29.3436 12.8008L25.9685 18.2018V11.6004C25.9306 10.0816 25.4308 9.17307 24.4818 8.89912C23.8539 8.71805 22.9145 8.79063 22.0019 10.169L14.4403 22.1526C13.428 20.2558 12.9003 18.1438 12.903 16C12.903 8.78127 18.7644 2.90888 25.9685 2.90888C33.1727 2.90888 39.0332 8.78127 39.0332 16C39.0332 16.0125 39.0364 16.0234 39.0372 16.0351C39.0372 16.0476 39.0348 16.0585 39.0356 16.071C39.1036 17.4689 38.645 18.5803 37.7759 19.122ZM41.9363 16.0008V15.9641L41.9355 15.9282C41.8951 7.13678 34.7487 0 25.9677 0C17.1638 0 10 7.17737 10 16C10 24.8219 17.1638 32 25.9685 32C30.0087 32 33.8646 30.4843 36.8246 27.7331C37.4129 27.1867 37.4477 26.2665 36.9021 25.678C36.7736 25.5383 36.6182 25.4252 36.445 25.3454C36.2717 25.2657 36.084 25.2209 35.893 25.2136C35.702 25.2063 35.5114 25.2368 35.3324 25.3031C35.1534 25.3695 34.9897 25.4704 34.8507 25.6C32.4515 27.8423 29.2727 29.0917 25.9685 29.0911C22.111 29.0911 18.6402 27.406 16.2465 24.7337L23.0655 13.927V18.9089C23.0655 21.3019 24.0058 22.0753 24.7942 22.3017C25.5834 22.528 26.7894 22.3735 28.0554 20.3442L31.8062 14.343C31.9264 14.1495 32.0371 13.9824 32.1383 13.838V16.8726C32.1383 19.1095 33.0461 20.8983 34.6285 21.7795C36.0551 22.574 37.8486 22.5022 39.31 21.5922C41.0814 20.4878 42.0359 18.4531 41.9363 16.0008ZM64.1679 10.5342C64.5514 10.7645 64.8835 11.2765 64.8835 11.7378C64.8835 12.48 64.2446 13.0942 63.5289 13.0942C63.3502 13.0942 63.1715 13.0435 63.0181 12.992C62.1743 12.3778 61.1012 11.968 59.9767 11.968C57.3196 11.968 55.4794 14.1182 55.4794 16.7805C55.4794 19.4435 57.3196 21.568 59.9767 21.568C61.3052 21.568 62.4811 21.0302 63.3755 20.2115C63.6066 20.0476 63.8833 19.9582 64.1679 19.9555C64.8835 19.9555 65.4458 20.5182 65.4458 21.2355C65.4458 21.696 65.1643 22.1058 64.8068 22.336C63.5289 23.4115 61.7915 24.128 60.0028 24.128C55.9143 24.128 52.5914 20.8 52.5914 16.704C52.5914 12.608 55.9136 9.28 60.0028 9.28C61.5361 9.28 62.992 9.74049 64.1679 10.5342ZM71.6441 13.632C74.4292 13.632 76.7803 15.9618 76.7803 18.8285C76.7803 21.696 74.4292 24.128 71.6441 24.128C68.7308 24.128 66.303 21.696 66.303 18.8285C66.303 15.9618 68.7308 13.632 71.6441 13.632ZM71.618 21.568C72.8453 21.568 73.8923 20.416 73.8923 18.8542C73.8923 17.2933 72.8453 16.32 71.618 16.32C70.2894 16.32 69.1902 17.2675 69.1902 18.8542C69.1902 20.416 70.2894 21.568 71.618 21.568ZM78.5319 22.5405V15.2195C78.5319 14.4258 79.1708 13.76 79.9632 13.76C80.7556 13.76 81.4199 14.4258 81.4199 15.2195V22.5405C81.4199 23.3342 80.7556 24 79.9632 24C79.1708 24 78.5319 23.3342 78.5319 22.5405ZM78.3025 10.9955C78.3025 10.048 79.0427 9.28 79.9632 9.28C80.9082 9.28 81.6753 10.048 81.6753 10.9955C81.6753 11.9165 80.9082 12.6595 79.9632 12.6595C79.0427 12.6595 78.3025 11.9165 78.3025 10.9955ZM86.9538 18.5725V22.5405C86.9538 23.3342 86.2896 24 85.4964 24C84.7048 24 84.0651 23.3342 84.0651 22.5405V14.8862C84.0651 14.272 84.5767 13.76 85.1904 13.76C85.8032 13.76 86.2896 14.272 86.2896 14.8862C87.4647 13.8115 88.4864 13.632 89.4575 13.632C92.3455 13.632 93.6234 15.7822 93.6234 18.2142V22.5405C93.6234 23.3342 92.9591 24 92.1668 24C91.3744 24 90.7354 23.3342 90.7354 22.5405V18.5725C90.7354 17.3182 90.582 16.2685 88.7679 16.2685C87.49 16.2685 86.9538 17.3182 86.9538 18.5725ZM103.016 20.0835C102.684 20.0835 102.454 19.9298 102.275 19.7245L98.9012 16.1155V22.5405C98.9012 23.3342 98.2369 24 97.4445 24C96.6522 24 96.0132 23.3342 96.0132 22.5405V9.81854C96.0545 9.71136 96.1283 9.61937 96.2246 9.55512C96.3208 9.49086 96.4348 9.45748 96.5509 9.45951C96.8056 9.45951 97.0096 9.66478 97.1638 9.81854L102.53 15.783C102.684 15.9625 102.888 16.0648 102.99 16.0648C103.092 16.0648 103.296 15.9625 103.45 15.7838L108.817 9.81854C108.97 9.66478 109.174 9.45951 109.43 9.45951C109.685 9.45951 109.89 9.61327 109.967 9.81854V22.5405C109.967 23.3342 109.328 24 108.535 24C107.743 24 107.079 23.3342 107.079 22.5405V16.1155L103.706 19.7245C103.527 19.9298 103.296 20.0835 103.016 20.0835ZM116.906 21.568C118.209 21.568 119.308 20.416 119.308 18.8542C119.308 17.2933 118.184 16.2685 116.906 16.2685C115.628 16.2685 114.606 17.3182 114.606 18.8542C114.606 20.3645 115.628 21.568 116.906 21.568ZM119.973 22.8738L119.921 22.5405C119.359 23.641 117.569 24.128 116.42 24.128C113.71 24.128 111.718 21.696 111.718 18.8285C111.718 15.9618 113.762 13.632 116.573 13.632C117.059 13.632 118.669 13.76 119.921 15.2195L119.972 14.8862C119.972 14.272 120.457 13.76 121.071 13.76C121.684 13.76 122.195 14.272 122.195 14.8862V22.8738C122.195 23.488 121.684 24 121.07 24C120.457 24 119.971 23.488 119.971 22.8738H119.973ZM130.208 16.2685H129.902C128.087 16.3715 127.73 17.3955 127.73 18.5725V22.5405C127.73 23.3342 127.065 24 126.273 24C125.481 24 124.842 23.3342 124.842 22.5405V14.8862C124.842 14.272 125.352 13.76 125.966 13.76C126.58 13.76 127.065 14.272 127.065 14.8862C128.138 13.888 129.008 13.6835 129.902 13.632H130.183C130.873 13.632 131.511 14.2205 131.511 14.9635C131.511 15.6542 130.898 16.2685 130.208 16.2685ZM141.338 21.8755C141.467 22.08 141.543 22.3102 141.543 22.5662C141.543 23.3085 140.853 24 140.112 24C139.601 24 139.166 23.616 138.834 23.2062L135.513 19.392V22.5405C135.513 23.3342 134.848 24 134.055 24C133.263 24 132.624 23.3342 132.624 22.5405V10.919C132.624 10.1245 133.263 9.45951 134.055 9.45951C134.848 9.45951 135.512 10.1245 135.512 10.919V18.1635L138.834 14.528C139.166 14.144 139.575 13.76 140.087 13.76C140.802 13.76 141.467 14.4258 141.467 15.168C141.467 15.3982 141.415 15.6285 141.287 15.8338L138.655 18.6747L141.338 21.8755ZM147 16.32C146.208 16.32 144.93 16.7298 144.93 17.9325H149.095C149.095 16.704 147.767 16.32 147 16.32H147ZM150.782 19.7502H144.93C144.93 21.4658 146.591 21.7218 147.332 21.7218C147.87 21.7218 148.636 21.6195 149.223 21.3627C149.402 21.2355 149.709 21.1325 149.964 21.1325C150.603 21.1325 151.14 21.671 151.14 22.311C151.14 22.7458 150.859 23.1298 150.501 23.3342C149.607 23.9742 148.456 24.128 147.358 24.128C144.445 24.128 142.017 22.567 142.017 18.9565C142.017 16.1155 143.499 13.632 146.949 13.632C149.734 13.632 151.855 15.424 151.907 18.624C151.907 19.2382 151.396 19.7502 150.782 19.7502ZM158.821 24.128H158.028C155.83 24.128 154.553 23.1805 154.553 19.776V16.2685H153.812C153.121 16.2685 152.508 15.6542 152.508 14.9635C152.508 14.2205 153.121 13.632 153.812 13.632H154.553V10.9182C154.553 10.1245 155.192 9.45873 155.984 9.45873C156.776 9.45873 157.441 10.1245 157.441 10.9182V13.632H158.641C159.331 13.632 159.945 14.2205 159.945 14.9635C159.945 15.6542 159.331 16.2685 158.641 16.2685H157.441V19.2125C157.441 21.1582 157.543 21.568 158.412 21.568H158.821C159.51 21.568 160.098 22.1315 160.098 22.848C160.098 23.5395 159.51 24.128 158.821 24.128ZM172.813 10.5342C173.196 10.7645 173.528 11.2765 173.528 11.7378C173.528 12.48 172.89 13.0942 172.174 13.0942C171.995 13.0942 171.816 13.0435 171.663 12.992C170.819 12.3778 169.746 11.968 168.622 11.968C165.965 11.968 164.124 14.1182 164.124 16.7805C164.124 19.4435 165.964 21.568 168.622 21.568C169.95 21.568 171.126 21.0302 172.02 20.2115C172.252 20.0476 172.528 19.9582 172.813 19.9555C173.528 19.9555 174.09 20.5182 174.09 21.2355C174.09 21.696 173.809 22.1058 173.452 22.336C172.174 23.4115 170.436 24.128 168.647 24.128C164.559 24.128 161.236 20.8 161.236 16.704C161.236 12.608 164.558 9.28 168.647 9.28C170.181 9.28 171.637 9.74049 172.813 10.5342ZM180.136 21.568C181.439 21.568 182.537 20.416 182.537 18.8542C182.537 17.2933 181.413 16.2685 180.135 16.2685C178.858 16.2685 177.835 17.3182 177.835 18.8542C177.835 20.3645 178.858 21.568 180.135 21.568H180.136ZM183.202 22.8738L183.151 22.5405C182.589 23.641 180.8 24.128 179.649 24.128C176.941 24.128 174.947 21.696 174.947 18.8285C174.947 15.9618 176.992 13.632 179.803 13.632C180.288 13.632 181.898 13.76 183.151 15.2195L183.202 14.8862C183.202 14.272 183.687 13.76 184.301 13.76C184.914 13.76 185.425 14.272 185.425 14.8862V22.8738C185.425 23.488 184.914 24 184.301 24C183.687 24 183.202 23.488 183.202 22.8738ZM193.361 21.568C194.639 21.568 195.66 20.3645 195.66 18.8542C195.66 17.3182 194.639 16.2685 193.361 16.2685C192.083 16.2685 190.958 17.2925 190.958 18.8542C190.958 20.416 192.058 21.568 193.361 21.568ZM190.958 23.2835V26.9182C190.958 27.712 190.294 28.3778 189.502 28.3778C188.71 28.3778 188.07 27.712 188.07 26.9182V14.8862C188.07 14.272 188.582 13.76 189.196 13.76C189.809 13.76 190.295 14.272 190.295 14.9885C191.367 13.888 192.697 13.632 193.693 13.632C196.504 13.632 198.548 15.9618 198.548 18.8285C198.548 21.696 196.556 24.128 193.846 24.128C193.003 24.128 191.751 23.872 190.958 23.2835Z" fill="white"/>
</g>
<defs>
<clipPath id="clip0_501_5">
<rect width="189" height="32" fill="white" transform="translate(10)"/>
</clipPath>
</defs>
</svg>
