<svg width="140" height="32" viewBox="0 0 140 32" fill="none" xmlns="http://www.w3.org/2000/svg">
<g clip-path="url(#clip0_11_69)">
<path d="M59.7799 13.911C59.4536 12.6277 58.6308 11.6887 57.022 11.6887C54.648 11.6887 53.6551 13.8009 53.6551 15.9443C53.6551 18.0878 54.648 20.2011 57.022 20.2011C58.7457 20.2011 59.6903 18.9028 59.8443 17.2752H61.7369C61.5817 19.9507 59.7052 21.7962 57.0255 21.7962C53.7057 21.7962 51.72 19.1358 51.72 15.9432C51.72 12.7506 53.6988 10.0855 57.0186 10.0855C59.5156 10.1006 61.4852 11.494 61.7185 13.9041L59.7799 13.911Z" fill="white"/>
<path d="M62.8825 17.4722C62.8825 14.9995 64.3557 13.2166 66.9309 13.2166C69.5061 13.2166 70.9792 14.9995 70.9792 17.4722C70.9792 19.9449 69.5061 21.7452 66.9309 21.7452C64.3557 21.7452 62.8825 19.9611 62.8825 17.4722ZM69.2107 17.4722C69.2107 16.0811 68.5132 14.6251 66.9309 14.6251C65.3485 14.6251 64.651 16.08 64.651 17.4722C64.651 18.8645 65.3485 20.3367 66.9309 20.3367C68.5132 20.3367 69.2107 18.8807 69.2107 17.4722Z" fill="white"/>
<path d="M72.4995 10.3521H74.268V12.0423H72.4995V10.3521ZM72.4995 13.4357H74.268V21.5261H72.4995V13.4357Z" fill="white"/>
<path d="M76.1916 13.4357H77.867V14.6251L77.8981 14.6564C78.1521 14.2158 78.5168 13.8506 78.9554 13.5976C79.394 13.3446 79.891 13.2128 80.3962 13.2155C82.1337 13.2155 83.2346 14.1545 83.2346 15.9687V21.525H81.4661V16.4393C81.435 15.1723 80.9386 14.6251 79.8998 14.6251C78.7208 14.6251 77.9601 15.5629 77.9601 16.7523V21.5261H76.1916V13.4357Z" fill="white"/>
<path d="M95.0084 21.5262H93.7673L93.4732 20.2116C92.4389 21.401 91.4875 21.7916 90.1407 21.7916C86.8232 21.7939 84.833 19.1277 84.833 15.9386C84.833 12.7494 86.8232 10.0855 90.1384 10.0855C92.5516 10.0855 94.5901 11.3838 94.8843 13.9041H92.9917C92.8055 12.433 91.5346 11.6818 90.1384 11.6818C87.7644 11.6818 86.7715 13.7939 86.7715 15.9374C86.7715 18.0809 87.7644 20.1942 90.1384 20.1942C92.1229 20.2255 93.2089 19.021 93.241 17.1268H90.2936V15.6418H95.0049L95.0084 21.5262Z" fill="white"/>
<path d="M98.2512 17.9417C98.2512 19.2099 98.9338 20.3367 100.407 20.3367C101.431 20.3367 102.051 19.8823 102.36 18.9909H104.037C103.65 20.7587 102.161 21.7452 100.407 21.7452C97.895 21.7452 96.4827 19.9762 96.4827 17.4885C96.4827 15.1873 97.9766 13.2166 100.361 13.2166C102.889 13.2166 104.44 15.5166 104.146 17.9417H98.2512ZM102.378 16.7686C102.316 15.6418 101.555 14.6251 100.361 14.6251C99.1349 14.6251 98.2983 15.5629 98.2512 16.7686H102.378Z" fill="white"/>
<path d="M110.91 16.1426C110.77 15.156 110.056 14.6251 109.079 14.6251C108.16 14.6251 106.876 15.1097 106.876 17.5661C106.876 18.912 107.466 20.3367 109.001 20.3367C110.025 20.3367 110.739 19.6481 110.91 18.4901H112.678C112.352 20.5871 111.07 21.7452 109.001 21.7452C106.488 21.7452 105.108 19.9449 105.108 17.5661C105.108 15.1247 106.427 13.2166 109.063 13.2166C110.925 13.2166 112.511 14.1556 112.678 16.1426H110.91Z" fill="white"/>
<path d="M114.172 10.3521H115.941V16.706L119.136 13.4357H121.308L118.237 16.408L121.602 21.5261H119.442L116.991 17.5974L115.936 18.6303V21.5285H114.172V10.3521Z" fill="white"/>
<path d="M122.079 17.4722C122.079 14.9995 123.552 13.2166 126.128 13.2166C128.703 13.2166 130.177 14.9995 130.177 17.4722C130.177 19.9449 128.703 21.7452 126.128 21.7452C123.552 21.7452 122.079 19.9611 122.079 17.4722ZM128.409 17.4722C128.409 16.0811 127.71 14.6251 126.128 14.6251C124.545 14.6251 123.848 16.08 123.848 17.4722C123.848 18.8645 124.545 20.3367 126.128 20.3367C127.71 20.3367 128.409 18.8807 128.409 17.4722Z" fill="white"/>
<path d="M41.7157 15.9269C41.7296 19.0909 40.813 22.1881 39.082 24.8266C37.351 27.4652 34.8833 29.5266 31.991 30.7503C29.0986 31.974 25.9115 32.3049 22.8327 31.7013C19.7539 31.0976 16.9217 29.5865 14.6942 27.359C12.4667 25.1315 10.944 22.2876 10.3187 19.1871C9.69332 16.0865 9.99341 12.8685 11.181 9.94005C12.3686 7.01156 14.3903 4.5041 16.9905 2.73477C19.5907 0.965434 22.6526 0.0136956 25.789 -9.20425e-05C29.9945 -0.0185798 34.0352 1.64902 37.022 4.63588C40.0088 7.62275 41.6972 11.6842 41.7157 15.9269Z" fill="#8DC63F"/>
<path d="M40.5263 15.9328C40.5395 18.8591 39.6921 21.7236 38.0915 24.1641C36.4909 26.6045 34.2088 28.5114 31.534 29.6434C28.8591 30.7755 25.9115 31.0819 23.064 30.524C20.2165 29.9661 17.5969 28.5688 15.5365 26.5089C13.4762 24.4491 12.0676 21.8191 11.4889 18.9516C10.9102 16.0841 11.1874 13.1079 12.2854 10.3993C13.3834 7.69075 15.253 5.37148 17.6576 3.73482C20.0622 2.09815 22.8939 1.21759 25.7946 1.20449C29.684 1.18723 33.421 2.72916 36.1837 5.49117C38.9463 8.25317 40.5084 12.0091 40.5263 15.9328Z" fill="#F9E988"/>
<path d="M26.1279 2.16317C27.0602 1.99623 28.0143 1.99623 28.9466 2.16317C29.888 2.31354 30.7979 2.62109 31.639 3.07318C32.4756 3.53688 33.1984 4.16636 33.9177 4.75642C34.6371 5.34648 35.353 5.95045 36.0344 6.61122C36.73 7.2617 37.337 8.00234 37.8397 8.8138C38.3572 9.61883 38.7813 10.4812 39.1037 11.3839C39.7162 13.1993 39.9288 15.1549 39.6231 17.0201H39.5323C39.2255 15.1711 38.8095 13.4091 38.1534 11.7328C37.8454 10.8887 37.483 10.0658 37.0686 9.26939C36.6362 8.47286 36.1597 7.70151 35.6414 6.959C35.1143 6.20835 34.4683 5.55037 33.7293 5.01145C32.9846 4.47588 32.1285 4.12926 31.3 3.80003C30.4715 3.47081 29.6499 3.12999 28.7858 2.87959C27.9216 2.62919 27.0437 2.44139 26.1267 2.25939L26.1279 2.16317Z" fill="white"/>
<path d="M33.2972 10.7103C32.2331 10.3997 31.13 9.95915 30.013 9.514C29.9487 9.23114 29.7005 8.87873 29.1983 8.44864C28.4686 7.8099 27.0977 7.82613 25.913 8.10898C24.6053 7.7983 23.3137 7.68818 22.0738 7.99306C11.9328 10.8112 17.683 17.6867 13.9599 24.5982C14.4896 25.7319 20.1996 32.3466 28.4617 30.5718C28.4617 30.5718 25.636 23.7218 32.0125 20.4342C37.1847 17.7574 40.9216 12.8051 33.2972 10.7103Z" fill="#8BC53F"/>
<path d="M34.5497 15.2094C34.5504 15.3321 34.515 15.4522 34.448 15.5545C34.3811 15.6569 34.2855 15.737 34.1734 15.7845C34.0613 15.8321 33.9378 15.8451 33.8184 15.8218C33.699 15.7986 33.5892 15.7401 33.5027 15.6539C33.4162 15.5676 33.3571 15.4574 33.3327 15.3373C33.3083 15.2171 33.3198 15.0923 33.3657 14.9788C33.4116 14.8652 33.4898 14.7679 33.5905 14.6991C33.6913 14.6304 33.8099 14.5934 33.9315 14.5927C34.0945 14.5921 34.251 14.6566 34.3669 14.7722C34.4828 14.8878 34.5485 15.045 34.5497 15.2094Z" fill="white"/>
<path d="M25.913 8.10436C26.6518 8.15769 29.3236 9.03176 30.013 9.50938C29.4385 7.82846 27.5045 7.60472 25.913 8.10436Z" fill="#009345"/>
<path d="M26.6162 12.3554C26.6165 12.9213 26.4503 13.4745 26.1388 13.9452C25.8273 14.4158 25.3845 14.7827 24.8663 14.9994C24.3481 15.2162 23.7778 15.273 23.2276 15.1627C22.6774 15.0525 22.172 14.7801 21.7752 14.38C21.3785 13.9799 21.1083 13.4701 20.9988 12.9151C20.8892 12.3601 20.9453 11.7848 21.16 11.2619C21.3746 10.7391 21.7381 10.2922 22.2045 9.97774C22.6709 9.66331 23.2192 9.49548 23.7802 9.49548C24.1526 9.49533 24.5213 9.56919 24.8654 9.71285C25.2095 9.8565 25.5221 10.0671 25.7855 10.3327C26.0489 10.5983 26.2578 10.9136 26.4003 11.2607C26.5429 11.6077 26.6162 11.9797 26.6162 12.3554Z" fill="white"/>
<path d="M25.7751 12.3808C25.7751 12.7789 25.6581 13.168 25.4389 13.4989C25.2197 13.8299 24.9081 14.0878 24.5436 14.2401C24.1791 14.3924 23.778 14.4323 23.391 14.3546C23.0041 14.277 22.6486 14.0853 22.3696 13.8039C22.0906 13.5224 21.9006 13.1638 21.8237 12.7735C21.7467 12.3831 21.7862 11.9784 21.9372 11.6107C22.0882 11.243 22.3439 10.9287 22.6719 10.7075C23 10.4864 23.3857 10.3684 23.7802 10.3684C24.3093 10.3684 24.8167 10.5804 25.1908 10.9578C25.5649 11.3352 25.7751 11.8471 25.7751 12.3808Z" fill="#58595B"/>
<path d="M36.8468 16.4707C34.5486 18.1041 31.9355 19.3433 28.2284 19.3433C26.4933 19.3433 26.1416 17.4885 24.9948 18.395C24.403 18.8657 22.3162 19.9183 20.6604 19.8383C19.0045 19.7583 16.3201 18.7788 15.5721 15.2129C15.2756 18.7788 15.1239 21.4056 13.7967 24.4162C16.4396 28.6857 22.7414 31.9792 28.4617 30.5602C27.8469 26.2304 31.5976 21.9899 33.7109 19.8198C34.5153 18.9978 36.0436 17.6566 36.8468 16.4684V16.4707Z" fill="#8BC53F"/>
<path d="M36.7572 16.5773C36.0436 17.2335 35.1944 17.7192 34.3303 18.1481C33.4556 18.5671 32.5438 18.902 31.6068 19.1485C30.6692 19.3931 29.6913 19.5775 28.7007 19.487C27.7102 19.3966 26.6978 19.057 26.0417 18.3081L26.0727 18.2721C26.8771 18.7984 27.8056 18.9839 28.7295 19.0106C29.6659 19.0393 30.6026 18.9615 31.5218 18.7787C32.4504 18.5826 33.3587 18.2993 34.2349 17.9325C35.1117 17.5673 35.9792 17.1442 36.7262 16.5414L36.7572 16.5773Z" fill="#58595B"/>
</g>
<defs>
<clipPath id="clip0_11_69">
<rect width="140" height="32" fill="white"/>
</clipPath>
</defs>
</svg>
