<svg width="40" height="32" viewBox="0 0 40 32" fill="none" xmlns="http://www.w3.org/2000/svg">
<path fill-rule="evenodd" clip-rule="evenodd" d="M10.5629 23.146C10.5629 24.1466 11.2676 24.897 12.313 24.897C13.1858 24.897 13.6571 24.3306 13.6571 24.3306L13.2371 23.7265C13.2371 23.7265 12.8544 24.1419 12.3504 24.1419C11.7343 24.1419 11.4076 23.6274 11.4076 23.1271C11.4076 22.641 11.711 22.1643 12.3504 22.1643C12.8124 22.1643 13.1858 22.5089 13.1858 22.5089L13.5638 21.8859C13.5638 21.8859 13.1391 21.4092 12.313 21.4092C11.3096 21.4092 10.5629 22.1643 10.5629 23.146ZM14.1518 24.8404H14.9685V23.7029H15.3512L15.9439 24.8404H16.854L16.2053 23.6605C16.1259 23.5189 16.0793 23.4575 16.0793 23.4575V23.4481C16.4106 23.2782 16.5786 22.8864 16.5786 22.5277C16.5786 22.0369 16.3406 21.6924 15.9626 21.546C15.8179 21.4894 15.6546 21.4658 15.3139 21.4658H14.1518V24.8404ZM14.9685 22.995V22.1738H15.2439C15.6546 22.1738 15.7479 22.3248 15.7479 22.5797C15.7479 22.8487 15.5846 22.995 15.3232 22.995H14.9685ZM18.0394 24.8404H18.8561V23.4575L19.9575 21.4658H19.0288L18.6554 22.2776C18.5481 22.5089 18.4548 22.7637 18.4548 22.7637H18.4454C18.4454 22.7637 18.3521 22.5089 18.2447 22.2776L17.8667 21.4658H16.938L18.0394 23.4575V24.8404ZM20.3309 24.8404H21.1476V23.7973H21.717C22.3657 23.7973 22.8044 23.3065 22.8044 22.6268C22.8044 21.9472 22.3657 21.4658 21.717 21.4658H20.3309V24.8404ZM21.1476 23.0894V22.1738H21.5629C21.8336 22.1738 21.9736 22.3578 21.9736 22.6268C21.9736 22.8959 21.8336 23.0894 21.5489 23.0894H21.1476ZM23.9291 24.8404H24.7458V22.1738H25.7585V21.4658H22.9164V22.1738H23.9291V24.8404ZM25.9406 23.1319C25.9406 24.123 26.6779 24.897 27.686 24.897C28.6941 24.897 29.4314 24.123 29.4314 23.1319C29.4314 22.1643 28.6941 21.4092 27.686 21.4092C26.6779 21.4092 25.9406 22.1643 25.9406 23.1319ZM26.7853 23.1319C26.7853 22.5797 27.1866 22.1643 27.686 22.1643C28.1854 22.1643 28.5867 22.5797 28.5867 23.1319C28.5867 23.7076 28.1854 24.1419 27.686 24.1419C27.1866 24.1419 26.7853 23.7076 26.7853 23.1319Z" fill="#FF9933"/>
<path fill-rule="evenodd" clip-rule="evenodd" d="M12.9577 26.936C13.253 27.19 13.4007 27.5801 13.4007 28.1063C13.4007 28.6325 13.249 29.0175 12.9457 29.2613C12.6423 29.5051 12.1792 29.627 11.5565 29.627H10.996V30.8155H10.0558V26.5551H11.5444C12.1913 26.5551 12.6624 26.6821 12.9577 26.936ZM12.2676 28.6122C12.3801 28.4842 12.4364 28.2972 12.4364 28.0514C12.4364 27.8056 12.3631 27.6309 12.2164 27.5272C12.0698 27.4236 11.8417 27.3718 11.5324 27.3718H10.996V28.8041H11.6288C11.9422 28.8041 12.1551 28.7402 12.2676 28.6122ZM17.1314 30.8155L16.7396 29.8951H14.9737L14.582 30.8155H13.5815L15.4016 26.5551H16.3117L18.1318 30.8155H17.1314ZM15.8597 27.8229L15.3293 29.0601H16.384L15.8597 27.8229ZM21.8083 26.5551H22.7485V30.8155H21.8083L19.8013 28.1459V30.8155H18.8611V26.5551H19.741L21.8083 29.2978V26.5551ZM24.0262 26.5551H24.9664V30.8155H24.0262V26.5551ZM28.1787 29.9744C28.6408 29.9744 29.0185 29.7895 29.3118 29.4197L29.9145 30.0475C29.4364 30.592 28.8728 30.8642 28.2239 30.8642C27.575 30.8642 27.0407 30.657 26.6208 30.2426C26.2009 29.8281 25.991 29.305 25.991 28.6731C25.991 28.0413 26.2049 27.514 26.6328 27.0915C27.0607 26.6689 27.5841 26.4576 28.2028 26.4576C28.8939 26.4576 29.4725 26.7237 29.9386 27.256L29.354 27.9265C29.0567 27.5526 28.687 27.3657 28.245 27.3657C27.8915 27.3657 27.5891 27.4826 27.338 27.7162C27.0869 27.9498 26.9613 28.2647 26.9613 28.6609C26.9613 29.0571 27.0798 29.375 27.3169 29.6148C27.5539 29.8545 27.8412 29.9744 28.1787 29.9744Z" fill="white"/>
<path fill-rule="evenodd" clip-rule="evenodd" d="M18.4979 18.0831C18.9877 18.1714 19.492 18.2174 20.007 18.2174C22.2887 18.2174 24.3609 17.3133 25.8901 15.8411C24.6186 15.6307 22.9058 15.3239 22.9037 15.1973C22.9007 15.0266 26.4272 14.4657 27.1205 14.357C27.2238 14.1994 27.322 14.0381 27.415 13.8735C26.1691 13.665 24.6174 13.3812 24.6154 13.2608C24.613 13.128 26.7465 12.759 28.0207 12.5505C28.3474 11.6394 28.5256 10.6565 28.5256 9.63173C28.5256 4.88997 24.7117 1.04602 20.007 1.04602C17.7241 1.04602 15.6509 1.95112 14.1214 3.42471C15.398 3.63774 17.1472 3.95163 17.1451 4.07188C17.142 4.25756 13.4576 4.83112 12.8852 4.91912C12.7843 5.07359 12.6883 5.23154 12.5973 5.39275C13.8509 5.60412 15.4354 5.894 15.4334 6.00846C15.431 6.15111 13.2557 6.52272 11.9882 6.72718C11.6647 7.63435 11.4884 8.61229 11.4884 9.63173C11.4884 10.6726 11.6721 11.6701 12.0087 12.5933C12.2618 12.4751 12.5437 12.3019 12.844 12.1321C12.2862 12.0649 11.9901 11.9485 11.9901 11.9485C12.8476 11.7501 14.2719 11.2059 14.2719 11.2059C14.3441 11.1549 14.4163 11.104 14.4831 11.0839C15.0554 10.7072 15.5301 10.3451 15.9074 9.99755C16.3786 10.0175 16.9888 9.96647 17.5357 9.55338C17.1656 9.67898 16.29 9.61906 16.29 9.61906C15.4307 9.46634 15.0461 8.9515 15.149 8.906C16.3061 8.44189 17.3206 7.88865 17.3206 7.88865C17.5445 7.51382 18.4325 6.23647 19.5446 6.21085C19.893 6.20898 20.2017 6.07248 20.4652 5.83228L22.0519 4.36016C22.0519 4.36016 22.9311 4.58018 22.962 5.67001C22.9982 6.7289 22.1986 7.32032 22.3087 7.59504C22.4243 7.83882 23.5886 7.15274 23.5886 7.15274C23.5886 7.15274 23.8505 8.18795 23.3451 8.54462C22.8397 8.9013 21.6953 10.7391 21.3904 12.12C21.3147 12.5531 21.219 12.9188 21.1234 13.2845C21.1361 13.5738 21.0514 14.962 20.5587 15.608L20.4756 15.1786C20.0153 16.1812 19.4702 16.9454 18.8746 17.6368C18.7345 17.8024 18.6099 17.9503 18.4979 18.0831ZM19.3469 7.35117L19.5527 6.71796L19.9281 6.56142C19.7658 7.48939 19.3469 7.35117 19.3469 7.35117Z" fill="#FF9933"/>
</svg>
