<svg width="113" height="32" viewBox="0 0 113 32" fill="none" xmlns="http://www.w3.org/2000/svg">
<g clip-path="url(#clip0_12_27)">
<path fill-rule="evenodd" clip-rule="evenodd" d="M14.0937 16.7413C13.9828 16.8223 13.8544 16.8752 13.7192 16.8955C13.584 16.9158 13.446 16.903 13.3167 16.8581L12.5541 16.5928C12.439 16.5529 12.339 16.4775 12.2682 16.3771C12.1974 16.2767 12.1594 16.1563 12.1594 16.0329C12.1594 15.9094 12.1974 15.789 12.2682 15.6886C12.339 15.5882 12.439 15.5128 12.5541 15.473L13.3167 15.2076C13.5118 15.1399 13.7243 15.1457 13.9155 15.2239C14.1067 15.3022 14.2637 15.4476 14.358 15.6337C14.4523 15.8197 14.4775 16.034 14.4289 16.2374C14.3804 16.4408 14.2614 16.6196 14.0937 16.7413Z" fill="#0DFF81"/>
<path fill-rule="evenodd" clip-rule="evenodd" d="M13.9259 23.2338C13.8666 23.1294 13.8475 23.0065 13.8723 22.8887C13.8971 22.7709 13.964 22.6666 14.0602 22.596L15.8372 21.296C15.9883 21.1853 16.1765 21.1401 16.3604 21.1702C16.5444 21.2003 16.709 21.3034 16.8181 21.4567C16.8325 21.4762 16.8445 21.4981 16.8565 21.5175C16.9029 21.5985 16.933 21.688 16.9452 21.7808C16.9574 21.8737 16.9514 21.9681 16.9276 22.0586C16.9038 22.1491 16.8625 22.2339 16.8063 22.3081C16.75 22.3824 16.6799 22.4446 16.5999 22.4913L16.5351 22.5254L14.5374 23.4383C14.4289 23.4875 14.3063 23.494 14.1933 23.4567C14.0804 23.4194 13.985 23.3408 13.9259 23.2362" fill="white"/>
<path fill-rule="evenodd" clip-rule="evenodd" d="M16.8565 10.7965C16.8064 10.8817 16.7397 10.9556 16.6606 11.0138C16.5814 11.072 16.4914 11.1132 16.396 11.1349C16.3 11.1563 16.2006 11.157 16.1044 11.1368C16.0081 11.1167 15.9171 11.0762 15.8372 11.018L14.0602 9.71563C13.9641 9.64473 13.8974 9.5402 13.8729 9.42226C13.8484 9.30432 13.8679 9.18135 13.9276 9.07715C13.9873 8.97295 14.0829 8.89493 14.196 8.85818C14.3091 8.82143 14.4316 8.82856 14.5398 8.8782L16.5375 9.78866C16.6217 9.82662 16.6976 9.88106 16.761 9.94885C16.8244 10.0167 16.874 10.0965 16.907 10.1838C16.94 10.271 16.9556 10.3641 16.9531 10.4575C16.9506 10.551 16.93 10.643 16.8924 10.7283C16.8924 10.7502 16.8709 10.7721 16.8589 10.7941" fill="white"/>
<path d="M18.6551 25.9359L18.4537 32H12.8419C12.0884 31.9994 11.3659 31.6952 10.8331 31.1544C10.3002 30.6135 10.0006 29.8801 10 29.1153V29.1153V27.825C12.9848 27.8295 15.9359 27.1853 18.6551 25.9359Z" fill="url(#paint0_linear_12_27)"/>
<path fill-rule="evenodd" clip-rule="evenodd" d="M33.7662 23.2338C33.707 23.3384 33.6117 23.4169 33.4987 23.4542C33.3858 23.4916 33.2632 23.485 33.1547 23.4358L31.157 22.5229C30.9878 22.4467 30.8553 22.3055 30.7888 22.1301C30.7222 21.9548 30.727 21.7599 30.802 21.5881L30.838 21.5175C30.8837 21.4361 30.9449 21.3646 31.0181 21.3073C31.0912 21.2501 31.1748 21.2081 31.264 21.1839C31.3533 21.1596 31.4464 21.1536 31.5379 21.1662C31.6294 21.1787 31.7176 21.2096 31.7973 21.257L31.8572 21.296L33.6343 22.596C33.7305 22.6666 33.7974 22.7709 33.8222 22.8887C33.847 23.0065 33.8279 23.1294 33.7686 23.2338" fill="white"/>
<path fill-rule="evenodd" clip-rule="evenodd" d="M33.6319 9.71806L31.8548 11.0205C31.7025 11.1305 31.5133 11.1747 31.3289 11.1432C31.1445 11.1117 30.98 11.0071 30.8716 10.8525L30.838 10.7989C30.7906 10.7191 30.7592 10.6305 30.7456 10.5382C30.732 10.446 30.7364 10.352 30.7587 10.2615C30.781 10.171 30.8206 10.0859 30.8754 10.011C30.9302 9.93617 30.999 9.873 31.0778 9.82517C31.0997 9.81061 31.123 9.79838 31.1474 9.78866L33.1451 8.8782C33.2533 8.82856 33.3758 8.82143 33.4889 8.85818C33.6019 8.89493 33.6976 8.97295 33.7573 9.07715C33.8169 9.18135 33.8364 9.30432 33.8119 9.42226C33.7875 9.5402 33.7207 9.64473 33.6247 9.71563" fill="white"/>
<path fill-rule="evenodd" clip-rule="evenodd" d="M35.7735 16.0329C35.774 16.1562 35.7363 16.2767 35.6657 16.3771C35.5951 16.4776 35.4953 16.553 35.3802 16.5928L34.6152 16.8581C34.4004 16.9292 34.1666 16.9115 33.9646 16.8088C33.7626 16.7061 33.6086 16.5267 33.536 16.3095C33.4634 16.0923 33.4781 15.8548 33.5768 15.6486C33.6756 15.4423 33.8505 15.2839 34.0636 15.2076C34.2426 15.1467 34.4362 15.1467 34.6152 15.2076L35.3802 15.473C35.4951 15.513 35.5947 15.5886 35.6652 15.6889C35.7358 15.7893 35.7736 15.9096 35.7735 16.0329Z" fill="#B3D2FF"/>
<path d="M16.9164 10.2243C16.9454 10.3192 16.9551 10.4191 16.9448 10.5179C16.9345 10.6167 16.9044 10.7123 16.8565 10.7989C16.8064 10.8841 16.7397 10.958 16.6606 11.0162C16.5814 11.0744 16.4914 11.1155 16.396 11.1372C16.3 11.1587 16.2006 11.1593 16.1044 11.1392C16.0081 11.1191 15.9171 11.0786 15.8372 11.0204L14.0602 9.718C13.9641 9.64711 13.8974 9.54258 13.8729 9.42463C13.8485 9.30669 13.8679 9.18373 13.9276 9.07953C13.9873 8.97533 14.0829 8.8973 14.196 8.86055C14.3091 8.8238 14.4316 8.83093 14.5398 8.88057L16.5375 9.79103C16.627 9.83233 16.707 9.89223 16.7723 9.96688C16.8375 10.0415 16.8866 10.1292 16.9164 10.2243ZM16.9164 22.0944C16.8861 22.1893 16.8365 22.2767 16.7708 22.3509C16.7051 22.4251 16.6248 22.4845 16.5351 22.5253L14.5374 23.4382C14.4286 23.4912 14.304 23.5006 14.1886 23.4645C14.0733 23.4284 13.9756 23.3494 13.915 23.2434C13.8545 23.1374 13.8355 23.0121 13.862 22.8925C13.8885 22.7729 13.9584 22.6679 14.0578 22.5983L15.8348 21.2984C15.9859 21.1877 16.1741 21.1424 16.358 21.1726C16.542 21.2027 16.7066 21.3057 16.8157 21.459C16.8301 21.4785 16.8421 21.5004 16.8541 21.5199C16.902 21.6065 16.9321 21.7021 16.9424 21.8009C16.9527 21.8997 16.943 21.9995 16.914 22.0944H16.9164ZM13.3167 16.8605L12.5541 16.5951C12.439 16.5553 12.339 16.4799 12.2682 16.3795C12.1974 16.2791 12.1594 16.1587 12.1594 16.0352C12.1594 15.9118 12.1974 15.7914 12.2682 15.691C12.339 15.5906 12.439 15.5152 12.5541 15.4753L13.3167 15.21C13.4239 15.1716 13.5374 15.1553 13.6509 15.1618C13.7643 15.1683 13.8753 15.1977 13.9775 15.2481C14.0796 15.2985 14.1709 15.369 14.2461 15.4555C14.3212 15.542 14.3787 15.6427 14.4152 15.7519C14.4517 15.8611 14.4665 15.9766 14.4587 16.0917C14.4509 16.2067 14.4207 16.319 14.3698 16.4222C14.319 16.5253 14.2484 16.6171 14.1623 16.6923C14.0763 16.7676 13.9763 16.8247 13.8683 16.8605C13.6893 16.9214 13.4957 16.9214 13.3167 16.8605ZM22.1637 -6.99135e-05H17.7558C17.7552 2.08795 16.9379 4.09031 15.4836 5.56699C14.0293 7.04368 12.057 7.87388 10 7.87517V27.825C12.9848 27.8294 15.9359 27.1853 18.6551 25.9359L18.9981 15.6238C18.3913 15.3195 17.9572 14.5113 17.9572 13.5668C17.9572 12.5029 18.504 11.6193 19.2259 11.4196C19.3243 10.7791 19.5477 10.165 19.883 9.61332C19.7252 9.59387 19.5739 9.53815 19.4405 9.45041C19.3071 9.36267 19.1951 9.24521 19.1132 9.10697C18.4609 8.13321 17.5807 7.13512 16.9068 5.52112C16.8447 5.38191 16.8204 5.22837 16.8364 5.07642C16.8525 4.92446 16.9082 4.77962 16.998 4.65691C17.0655 4.56727 17.1652 4.50847 17.2754 4.49341C17.3855 4.47835 17.4971 4.50826 17.5855 4.57658C17.6042 4.59151 17.6219 4.60778 17.6383 4.62526C18.6815 5.62823 19.9358 5.92766 20.6288 6.88924C20.6792 6.76977 20.7463 6.65827 20.8279 6.55817C21.0241 6.29999 21.2989 6.11506 21.6096 6.03226C21.9203 5.94945 22.2492 5.97345 22.545 6.1005C22.6359 5.78894 22.8237 5.51556 23.0802 5.32114C23.3367 5.12672 23.6482 5.02167 23.9683 5.02167C24.2885 5.02167 24.6 5.12672 24.8565 5.32114C25.113 5.51556 25.3007 5.78894 25.3917 6.1005C25.7063 5.95711 26.0626 5.93972 26.3893 6.05181C27.1927 4.49911 28.1836 3.05412 29.3391 1.75025C27.1185 0.595805 24.6586 -0.00424503 22.1637 -6.99135e-05Z" fill="url(#paint1_linear_12_27)"/>
<path fill-rule="evenodd" clip-rule="evenodd" d="M14.0937 16.7413C13.9828 16.8223 13.8544 16.8752 13.7192 16.8955C13.584 16.9158 13.446 16.903 13.3167 16.8581L12.5541 16.5928C12.439 16.5529 12.339 16.4775 12.2682 16.3771C12.1974 16.2767 12.1594 16.1563 12.1594 16.0329C12.1594 15.9094 12.1974 15.789 12.2682 15.6886C12.339 15.5882 12.439 15.5128 12.5541 15.473L13.3167 15.2076C13.5118 15.1399 13.7243 15.1457 13.9155 15.2239C14.1067 15.3022 14.2637 15.4476 14.358 15.6337C14.4523 15.8197 14.4775 16.034 14.4289 16.2374C14.3804 16.4408 14.2614 16.6196 14.0937 16.7413Z" fill="#B3D2FF"/>
<path d="M35.3802 16.5928L34.6152 16.8581C34.4004 16.9292 34.1666 16.9115 33.9646 16.8088C33.7626 16.7061 33.6086 16.5267 33.536 16.3095C33.4634 16.0923 33.4781 15.8549 33.5768 15.6486C33.6756 15.4423 33.8505 15.2839 34.0636 15.2076C34.2426 15.1468 34.4362 15.1468 34.6152 15.2076L35.3802 15.473C35.4953 15.5128 35.5953 15.5882 35.6661 15.6886C35.7368 15.789 35.7749 15.9094 35.7749 16.0329C35.7749 16.1563 35.7368 16.2767 35.6661 16.3771C35.5953 16.4775 35.4953 16.5529 35.3802 16.5928ZM33.7662 23.2338C33.707 23.3384 33.6117 23.4169 33.4987 23.4543C33.3858 23.4916 33.2632 23.485 33.1547 23.4358L31.157 22.523C30.9878 22.4468 30.8553 22.3055 30.7888 22.1302C30.7222 21.9549 30.727 21.7599 30.802 21.5881L30.838 21.5176C30.8837 21.4361 30.9449 21.3646 31.0181 21.3074C31.0912 21.2501 31.1748 21.2081 31.264 21.1839C31.3533 21.1597 31.4463 21.1536 31.5379 21.1662C31.6294 21.1788 31.7176 21.2097 31.7973 21.2571L31.8572 21.296L33.6343 22.596C33.7305 22.6666 33.7974 22.7709 33.8222 22.8887C33.847 23.0065 33.8279 23.1295 33.7686 23.2338H33.7662ZM30.7756 10.2244C30.806 10.1295 30.8556 10.0422 30.9213 9.96793C30.987 9.89371 31.0672 9.8343 31.157 9.79355L33.1547 8.88309C33.2629 8.83345 33.3854 8.82631 33.4985 8.86307C33.6115 8.89982 33.7072 8.97784 33.7669 9.08204C33.8265 9.18624 33.846 9.30921 33.8215 9.42715C33.797 9.54509 33.7303 9.64962 33.6343 9.72052L31.8572 11.0229C31.7049 11.133 31.5157 11.1771 31.3313 11.1456C31.1469 11.1141 30.9824 11.0096 30.874 10.8549L30.8404 10.8014C30.7905 10.7151 30.7589 10.6192 30.7478 10.5199C30.7366 10.4205 30.7461 10.3199 30.7756 10.2244ZM30.6965 2.54638C30.2576 2.25912 29.8068 1.99377 29.3391 1.75034C28.1836 3.0542 27.1927 4.49919 26.3893 6.0519C26.6734 6.14424 26.924 6.32055 27.1088 6.55825C27.1882 6.65993 27.2551 6.77112 27.3078 6.88932C27.9578 5.98617 29.1017 5.78168 30.1041 4.81279C30.2012 4.71031 30.3311 4.64638 30.4705 4.63255C30.6099 4.61871 30.7496 4.65587 30.8644 4.73733C30.9163 4.77205 30.9611 4.8167 30.9963 4.86878C31.062 4.95387 31.1033 5.05574 31.1155 5.16313C31.1278 5.27053 31.1106 5.37928 31.0658 5.47738L31.0371 5.54554C30.3656 7.12789 29.4902 8.13573 28.8427 9.10705C28.7591 9.24644 28.6452 9.36455 28.5097 9.45232C28.3742 9.54009 28.2206 9.59519 28.0609 9.6134C28.3935 10.1653 28.6129 10.7797 28.706 11.4197C29.3559 11.5999 29.8619 12.3302 29.9579 13.2504C29.9694 13.3555 29.975 13.4611 29.9746 13.5668C29.9746 14.4554 29.5909 15.2247 29.0369 15.563C29.0045 15.5865 28.97 15.6069 28.9338 15.6239V15.7773L29.4135 30.2034C31.9761 28.8536 34.1242 26.8152 35.6234 24.3107C37.1226 21.8062 37.9154 18.9319 37.9151 16.0012C37.9174 13.3245 37.2577 10.6899 35.9965 8.33918C34.7353 5.98841 32.9129 3.99662 30.6965 2.54638Z" fill="url(#paint2_linear_12_27)"/>
<path d="M26.9625 15.0932C27.0486 15.2503 27.0893 15.4289 27.0799 15.6085C27.0706 15.788 27.0116 15.9613 26.9098 16.1083C26.2263 17.121 25.2694 17.8903 24.0511 17.8903H23.7921C22.7393 17.7978 21.6337 17.0991 20.9502 16.2593C20.8269 16.1063 20.7524 15.9189 20.7366 15.7219C20.7207 15.5249 20.7643 15.3277 20.8615 15.1565C21.1297 14.7028 21.2714 14.1836 21.2716 13.6545C21.2718 13.1578 21.1515 12.6687 20.9214 12.2304C20.837 12.0744 20.7972 11.8977 20.8066 11.72C20.8159 11.5424 20.8739 11.3709 20.9742 11.225C21.0266 11.296 21.0869 11.3605 21.1541 11.4173C21.3956 11.6101 21.6929 11.717 22.0002 11.7214C22.3074 11.7258 22.6076 11.6275 22.8544 11.4416C22.8544 11.9942 23.4036 12.4422 24.0775 12.4422C24.1389 12.447 24.2007 12.447 24.2621 12.4422C24.8521 12.3691 25.303 11.9553 25.303 11.4538C25.5532 11.6439 25.8588 11.7435 26.1713 11.7369C26.4838 11.7303 26.7851 11.6178 27.0273 11.4173L27.0944 11.3564C27.139 11.4907 27.1541 11.6333 27.1388 11.7741C27.1235 11.915 27.078 12.0507 27.0057 12.1719C26.7406 12.6231 26.6013 13.1389 26.6028 13.6642C26.6033 14.1659 26.7269 14.6595 26.9625 15.1005V15.0932ZM30.9891 4.86878C30.9539 4.8167 30.9091 4.77205 30.8572 4.73732C30.7432 4.65848 30.6056 4.62284 30.4684 4.63664C30.3311 4.65044 30.2031 4.71279 30.1066 4.81279C29.1041 5.78654 27.9482 5.98616 27.3103 6.88932C27.2575 6.77112 27.1906 6.65993 27.1112 6.55824C26.9264 6.32054 26.6759 6.14424 26.3917 6.05189C26.065 5.9398 25.7087 5.95719 25.3941 6.10058C25.3031 5.78901 25.1154 5.51563 24.8589 5.32121C24.6024 5.12679 24.2909 5.02175 23.9708 5.02175C23.6506 5.02175 23.3391 5.12679 23.0826 5.32121C22.8261 5.51563 22.6384 5.78901 22.5474 6.10058C22.2516 5.97353 21.9227 5.94953 21.612 6.03233C21.3014 6.11514 21.0265 6.30007 20.8303 6.55824C20.7487 6.65835 20.6816 6.76985 20.6312 6.88932C19.9382 5.92774 18.6839 5.62831 17.6407 4.62534C17.604 4.58353 17.5595 4.54951 17.5098 4.52527C17.4601 4.50102 17.4061 4.48702 17.351 4.48408C17.2959 4.48113 17.2408 4.48931 17.1889 4.50812C17.1369 4.52694 17.0891 4.55602 17.0483 4.5937C17.0267 4.61238 17.0074 4.63363 16.9908 4.65699C16.901 4.7797 16.8453 4.92454 16.8293 5.07649C16.8132 5.22845 16.8375 5.38199 16.8996 5.5212C17.5735 7.13519 18.4537 8.12842 19.106 9.10705C19.1889 9.2465 19.3024 9.3647 19.4375 9.45251C19.5727 9.54032 19.7259 9.59537 19.8854 9.6134C19.5501 10.1651 19.3267 10.7792 19.2283 11.4197C18.5088 11.6193 17.9596 12.503 17.9596 13.5668C17.9596 14.5114 18.3937 15.3196 19.0005 15.6239L18.6575 25.936L18.4561 32H22.1637C24.6586 32.0042 27.1185 31.4041 29.3391 30.2497L29.4231 30.2034L28.9458 15.7773V15.6239C28.982 15.6069 29.0165 15.5865 29.049 15.563C29.6029 15.2247 29.9866 14.4554 29.9866 13.5668C29.987 13.4611 29.9814 13.3554 29.9699 13.2504C29.8739 12.3302 29.3679 11.5999 28.718 11.4197C28.6222 10.7785 28.3986 10.1639 28.0609 9.6134C28.2206 9.59519 28.3742 9.54008 28.5097 9.45231C28.6452 9.36454 28.7591 9.24643 28.8427 9.10705C29.4902 8.13329 30.3656 7.12789 31.0371 5.54554L31.0658 5.47738C31.1106 5.37928 31.1278 5.27053 31.1155 5.16313C31.1033 5.05573 31.062 4.95387 30.9963 4.86878" fill="url(#paint3_linear_12_27)"/>
<path d="M17.7558 0C17.7552 2.08802 16.9379 4.09038 15.4836 5.56706C14.0293 7.04375 12.057 7.87395 10 7.87524V2.88475C10.0006 2.11986 10.3002 1.38649 10.8331 0.845635C11.3659 0.304779 12.0884 0.000644657 12.8419 0L17.7558 0Z" fill="url(#paint4_linear_12_27)"/>
<path fill-rule="evenodd" clip-rule="evenodd" d="M25.3917 13.9271L24.5931 14.672C24.5242 14.738 24.4751 14.8224 24.4516 14.9155C24.3988 15.1297 24.2957 15.5509 24.2118 15.9501C24.1986 16.0041 24.1677 16.0519 24.124 16.0856C24.0804 16.1193 24.0267 16.1367 23.9719 16.1351C23.9172 16.1367 23.8635 16.1193 23.8198 16.0856C23.7762 16.0519 23.7452 16.0041 23.7321 15.9501L23.4779 14.9155C23.4555 14.8219 23.4063 14.7372 23.3364 14.672L22.5378 13.9271C22.4931 13.8815 22.4681 13.8198 22.4681 13.7555C22.4681 13.6912 22.4931 13.6295 22.5378 13.5839C22.5636 13.5559 22.5954 13.5345 22.6308 13.5214C22.6663 13.5083 22.7042 13.5038 22.7417 13.5084L23.9408 13.6739H24.0055L24.099 13.6618L25.2046 13.5084C25.2535 13.5034 25.3028 13.5139 25.3457 13.5382C25.3886 13.5626 25.423 13.5998 25.4444 13.6447C25.466 13.6916 25.4723 13.7443 25.4624 13.7951C25.4525 13.8459 25.4269 13.8921 25.3893 13.9271H25.3917ZM26.5884 13.6545C26.5933 13.1312 26.7375 12.6189 27.0057 12.1719C27.0746 12.0511 27.1172 11.9166 27.1304 11.7775C27.1437 11.6385 27.1273 11.4982 27.0824 11.3662L27.0273 11.4173C26.7836 11.6116 26.4834 11.7185 26.1735 11.7212C25.8637 11.7238 25.5617 11.6221 25.3149 11.4319C25.3149 11.9285 24.8689 12.3472 24.2741 12.4154C24.2126 12.4202 24.1509 12.4202 24.0894 12.4154C23.4156 12.4154 22.8664 11.9674 22.8664 11.4148C22.6196 11.605 22.3176 11.7068 22.0077 11.7041C21.6979 11.7015 21.3977 11.5946 21.154 11.4002C21.0869 11.3435 21.0266 11.2789 20.9742 11.2079C20.8739 11.3538 20.8159 11.5253 20.8065 11.703C20.7972 11.8806 20.837 12.0574 20.9214 12.2133C21.1546 12.6566 21.2749 13.152 21.2716 13.6545C21.2733 14.1776 21.1357 14.6915 20.8735 15.1419C20.7763 15.3131 20.7327 15.5103 20.7485 15.7073C20.7644 15.9043 20.8389 16.0917 20.9622 16.2447C21.6505 17.0845 22.7513 17.7832 23.8041 17.8757H24.0631C25.2814 17.8757 26.2382 17.1064 26.9217 16.0937C27.0189 15.9471 27.0742 15.7759 27.0814 15.5993C27.0886 15.4227 27.0474 15.2475 26.9625 15.0932C26.7269 14.6522 26.6032 14.1586 26.6028 13.6569" fill="#B3D2FF"/>
<path fill-rule="evenodd" clip-rule="evenodd" d="M25.3917 13.9271L24.5931 14.672C24.5242 14.738 24.4752 14.8224 24.4516 14.9155C24.3988 15.1297 24.2957 15.5508 24.2118 15.9501C24.1986 16.0041 24.1677 16.0519 24.124 16.0856C24.0804 16.1192 24.0267 16.1367 23.9719 16.1351C23.9172 16.1367 23.8635 16.1192 23.8198 16.0856C23.7762 16.0519 23.7453 16.0041 23.7321 15.9501L23.4779 14.9155C23.4555 14.8219 23.4063 14.7372 23.3364 14.672L22.5378 13.9271C22.4931 13.8815 22.4681 13.8198 22.4681 13.7555C22.4681 13.6912 22.4931 13.6295 22.5378 13.5839C22.5636 13.5559 22.5954 13.5345 22.6309 13.5214C22.6663 13.5083 22.7042 13.5038 22.7417 13.5084L23.9408 13.6739H24.0055L24.099 13.6618L25.2046 13.5084C25.2535 13.5034 25.3028 13.5138 25.3457 13.5382C25.3886 13.5626 25.4231 13.5998 25.4444 13.6447C25.466 13.6916 25.4723 13.7443 25.4624 13.7951C25.4525 13.8459 25.4269 13.8921 25.3893 13.9271" fill="#003580"/>
<path d="M51.0333 16.7729C51.0468 17.4159 50.9385 18.0556 50.7143 18.6571C50.5177 19.1691 50.2085 19.6287 49.8102 20.0009C49.4099 20.3696 48.9352 20.6454 48.4192 20.8091C47.8334 20.9948 47.2223 21.0852 46.6086 21.0769C46.4599 21.0769 46.2896 21.0769 46.1002 21.0769C45.9107 21.0769 45.7141 21.0526 45.5174 21.0306C45.3208 21.0087 45.1169 20.9747 44.9131 20.9357C44.7239 20.8987 44.5378 20.8466 44.3567 20.7799C44.1569 20.7288 43.9801 20.6104 43.8551 20.4442C43.7301 20.278 43.6643 20.0737 43.6684 19.8646V13.45C43.6634 13.3747 43.6731 13.2992 43.697 13.2277C43.7209 13.1563 43.7584 13.0903 43.8075 13.0337C43.9205 12.9208 44.0587 12.8372 44.2104 12.7903C44.5855 12.6711 44.9723 12.5944 45.3639 12.5614C45.7692 12.5249 46.141 12.5079 46.4767 12.5079C47.1038 12.4964 47.7292 12.5784 48.3329 12.7513C48.8626 12.9055 49.3534 13.1737 49.7718 13.5376C50.1769 13.9041 50.4943 14.3595 50.6999 14.8692C50.9353 15.4748 51.0487 16.1221 51.0333 16.7729ZM48.8749 16.7997C48.8749 15.9306 48.6663 15.2806 48.2466 14.8522C48.0307 14.6383 47.7741 14.4714 47.4924 14.3617C47.2108 14.252 46.91 14.2019 46.6086 14.2144C46.4503 14.2144 46.2992 14.2144 46.1601 14.2265C46.0176 14.2356 45.8758 14.2543 45.7357 14.2825V19.2876C45.873 19.3185 46.0125 19.3389 46.1529 19.3485C46.316 19.3631 46.4719 19.3704 46.6326 19.3704C46.9352 19.3854 47.2376 19.3362 47.5204 19.226C47.8033 19.1158 48.0604 18.9469 48.2754 18.7302C48.6831 18.3041 48.8845 17.6615 48.8845 16.7973L48.8749 16.7997Z" fill="white"/>
<path d="M54.0023 18.5013C54.0502 18.6732 54.1327 18.833 54.2446 18.9709C54.3564 19.1087 54.4952 19.2216 54.6522 19.3022C54.9855 19.4685 55.3529 19.5519 55.7242 19.5457C56.3692 19.547 57.0036 19.3793 57.566 19.0588C57.7008 19.1498 57.8145 19.2694 57.8993 19.4094C57.9856 19.5504 58.0313 19.7132 58.0312 19.8792C58.0347 20.0763 57.9683 20.268 57.8442 20.4196C57.7047 20.5837 57.5311 20.7143 57.3358 20.8018C57.0906 20.9134 56.8316 20.9903 56.5659 21.0307C56.2438 21.0814 55.9182 21.1058 55.5923 21.1037C55.1041 21.1081 54.6183 21.0333 54.1534 20.8822C53.7284 20.7415 53.3376 20.5108 53.007 20.2054C52.6797 19.9019 52.424 19.5275 52.2588 19.1099C52.0675 18.6174 51.9753 18.0909 51.9878 17.5617C51.9751 17.0497 52.0674 16.5407 52.2588 16.0669C52.4185 15.6756 52.6602 15.3242 52.967 15.0371C53.2739 14.75 53.6386 14.534 54.0358 14.4043C54.4231 14.2762 54.8277 14.2105 55.2349 14.2095C55.6571 14.2049 56.0768 14.2758 56.4748 14.4189C56.8296 14.5471 57.1557 14.7457 57.4341 15.0031C57.7046 15.2558 57.9195 15.5635 58.0648 15.9063C58.2178 16.2666 58.2946 16.6556 58.2903 17.048C58.2993 17.1659 58.2839 17.2845 58.2451 17.396C58.2063 17.5075 58.1448 17.6096 58.0648 17.6955C57.885 17.8512 57.6639 17.9494 57.4293 17.9779L54.0023 18.5013ZM55.2613 15.731C54.912 15.7196 54.5721 15.8471 54.314 16.0864C54.0454 16.3621 53.8865 16.7288 53.868 17.1162L56.4005 16.6999C56.3887 16.56 56.3499 16.4239 56.2862 16.2992C56.2226 16.1746 56.1354 16.0639 56.0296 15.9734C55.9238 15.883 55.8015 15.8146 55.6697 15.7722C55.5379 15.7298 55.3991 15.7141 55.2613 15.7261V15.731Z" fill="white"/>
<path d="M61.4367 14.8765H63.691C63.7342 14.9666 63.7797 15.0786 63.8301 15.2125C63.8794 15.3548 63.9038 15.5047 63.902 15.6555C63.9124 15.7664 63.9008 15.8782 63.8678 15.9844C63.8349 16.0906 63.7813 16.1891 63.7102 16.2739C63.6441 16.3375 63.5661 16.3871 63.4809 16.4197C63.3956 16.4523 63.3048 16.4673 63.2138 16.4637H61.535V20.8627C61.413 20.8961 61.2888 20.9205 61.1633 20.9357C60.9876 20.9591 60.8105 20.9705 60.6333 20.9698C60.3335 20.9942 60.0335 20.9263 59.7723 20.775C59.5949 20.6452 59.5061 20.392 59.5061 20.0155V14.2971C59.498 13.9043 59.5724 13.5143 59.7244 13.153C59.8601 12.845 60.0675 12.5752 60.3287 12.3667C60.5968 12.1629 60.9015 12.014 61.2256 11.9285C61.5879 11.8265 61.9625 11.7765 62.3384 11.78C62.8168 11.7496 63.2955 11.8329 63.7366 12.0234C63.8823 12.0984 64.0036 12.2146 64.0857 12.3581C64.1679 12.5015 64.2074 12.666 64.1994 12.8316C64.2025 12.9878 64.1679 13.1425 64.0987 13.282C64.0408 13.3988 63.959 13.5017 63.8589 13.5839C63.6824 13.529 63.5031 13.4843 63.3217 13.45C63.1095 13.4121 62.8944 13.3942 62.679 13.3964C62.3547 13.3746 62.0315 13.4518 61.7509 13.6179C61.6408 13.7051 61.5543 13.8192 61.4994 13.9494C61.4445 14.0797 61.4229 14.2219 61.4367 14.3629V14.8765ZM65.0148 12.5493C65.0124 12.4044 65.0388 12.2606 65.0924 12.1263C65.1459 11.9921 65.2256 11.8701 65.3266 11.7678C65.5483 11.5591 65.8396 11.4431 66.142 11.4431C66.4444 11.4431 66.7356 11.5591 66.9574 11.7678C67.0584 11.8701 67.138 11.9921 67.1916 12.1263C67.2452 12.2606 67.2715 12.4044 67.2691 12.5493C67.2721 12.696 67.246 12.8418 67.1924 12.9781C67.1389 13.1144 67.0589 13.2384 66.9574 13.3429C66.7356 13.5516 66.4444 13.6676 66.142 13.6676C65.8396 13.6676 65.5483 13.5516 65.3266 13.3429C65.225 13.2384 65.1451 13.1144 65.0915 12.9781C65.038 12.8418 65.0119 12.696 65.0148 12.5493ZM67.1492 20.8627C67.0273 20.8963 66.903 20.9207 66.7775 20.9357C66.6018 20.9591 66.4247 20.9705 66.2475 20.9698C65.95 20.9943 65.6522 20.9264 65.3937 20.775C65.2211 20.6452 65.1347 20.392 65.1347 20.0155V14.4846C65.2569 14.4503 65.3811 14.4234 65.5064 14.4043C65.6818 14.3766 65.859 14.3636 66.0365 14.3653C66.335 14.3384 66.6342 14.4092 66.8902 14.5674C67.0629 14.7004 67.1492 14.956 67.1492 15.3342V20.8627Z" fill="white"/>
<path d="M69.1829 20.5998C69.082 20.4915 69.0037 20.3637 68.9526 20.224C68.9015 20.0843 68.8787 19.9355 68.8855 19.7867V12.6953L69.3028 12.6296C69.4807 12.6027 69.6602 12.5888 69.84 12.5882C70.1407 12.5637 70.4414 12.6343 70.701 12.7902C70.8784 12.9241 70.9672 13.1895 70.9672 13.5839V19.1829H74.1472C74.2092 19.2938 74.2606 19.4103 74.3007 19.5311C74.35 19.6834 74.3744 19.843 74.3726 20.0033C74.3911 20.2412 74.3228 20.4777 74.1808 20.6679C74.1155 20.7424 74.0348 20.8012 73.9443 20.8399C73.8539 20.8786 73.756 20.8964 73.658 20.8919H69.9863C69.8399 20.9006 69.6933 20.8793 69.5552 20.8291C69.4172 20.7789 69.2905 20.7009 69.1829 20.5998Z" fill="white"/>
<path d="M76.6701 20.9698C76.3726 20.995 76.0746 20.927 75.8164 20.775C75.6437 20.6452 75.5573 20.392 75.5573 20.0155V12.1184C75.6811 12.0839 75.8069 12.057 75.9339 12.038C76.1116 12.0097 76.2912 11.9959 76.4711 11.9966C76.7678 11.9732 77.0644 12.0438 77.32 12.1987C77.4975 12.3326 77.5838 12.5882 77.5838 12.9655V20.8627C77.4576 20.8952 77.3294 20.9196 77.2001 20.9357C77.0244 20.9591 76.8473 20.9705 76.6701 20.9698Z" fill="white"/>
<path d="M81.7063 14.2022C82.1277 14.1988 82.5479 14.2462 82.9582 14.3434C83.3028 14.4253 83.6286 14.5741 83.9175 14.7816C84.1805 14.9774 84.3921 15.2357 84.5338 15.5338C84.6853 15.8721 84.7599 16.2407 84.7521 16.6122V19.6528C84.7643 19.8516 84.7046 20.0481 84.5842 20.2054C84.4611 20.3468 84.3161 20.4669 84.1549 20.5608C83.8424 20.7461 83.5022 20.8785 83.1477 20.9528C82.7028 21.046 82.2493 21.0909 81.7951 21.0866C80.8837 21.0866 80.1587 20.9097 79.6199 20.5559C79.3559 20.3825 79.142 20.141 79 19.8561C78.858 19.5713 78.793 19.2533 78.8117 18.9346C78.7956 18.674 78.836 18.4129 78.9301 18.1698C79.0241 17.9267 79.1696 17.7075 79.3561 17.5276C79.7174 17.203 80.277 17.0017 81.0348 16.9238L82.7975 16.734V16.5879C82.8045 16.4604 82.7761 16.3334 82.7154 16.2215C82.6548 16.1096 82.5644 16.0173 82.4546 15.955C82.1455 15.8019 81.8027 15.7323 81.4593 15.7529C81.1263 15.7518 80.7944 15.7927 80.4713 15.8746C80.1751 15.9458 79.8848 16.0402 79.6031 16.157C79.4828 16.0723 79.3861 15.9574 79.3225 15.8235C79.2464 15.673 79.2077 15.5058 79.2098 15.3366C79.2078 15.1476 79.266 14.963 79.3757 14.8103C79.4855 14.6577 79.641 14.5451 79.8189 14.4895C80.108 14.3818 80.4081 14.3075 80.7135 14.2679C81.0425 14.2228 81.3743 14.2008 81.7063 14.2022ZM81.7855 19.5578C81.9788 19.5579 82.1716 19.5384 82.361 19.4994C82.5126 19.4726 82.6585 19.4199 82.7927 19.3436V18.1191L81.7063 18.2116C81.4673 18.2258 81.2342 18.2923 81.0228 18.4064C80.9413 18.4517 80.8738 18.5192 80.828 18.6014C80.7823 18.6835 80.76 18.777 80.7638 18.8714C80.7604 18.9699 80.7804 19.0677 80.8222 19.1567C80.8639 19.2457 80.9262 19.3232 81.0037 19.3826C81.2404 19.5306 81.5182 19.5964 81.7951 19.57L81.7855 19.5578Z" fill="white"/>
<path d="M95.8821 20.8627C95.7559 20.8954 95.6278 20.9198 95.4984 20.9357C95.3227 20.9591 95.1456 20.9705 94.9684 20.9698C94.6709 20.9947 94.3731 20.9267 94.1147 20.775C93.942 20.6452 93.8557 20.392 93.8557 20.0155V16.678C93.8658 16.558 93.8495 16.4372 93.808 16.3244C93.7666 16.2115 93.7009 16.1095 93.6158 16.0256C93.4339 15.8828 93.2075 15.8111 92.9779 15.8235C92.8072 15.8223 92.6378 15.8545 92.4791 15.9184C92.3293 15.9791 92.1888 16.0611 92.0618 16.1619C92.0713 16.2061 92.0785 16.2508 92.0834 16.2958C92.0834 16.3396 92.0834 16.3858 92.0834 16.4297V20.8627C91.9571 20.8952 91.829 20.9196 91.6997 20.9357C91.5239 20.9591 91.3469 20.9705 91.1697 20.9698C90.8721 20.995 90.5742 20.927 90.3159 20.775C90.1432 20.6452 90.0569 20.392 90.0569 20.0155V16.678C90.0667 16.5556 90.0476 16.4326 90.0013 16.3192C89.9551 16.2057 89.8828 16.1051 89.7907 16.0256C89.6029 15.8854 89.3737 15.8142 89.1408 15.8235C88.969 15.8212 88.7983 15.8509 88.6371 15.9111C88.5101 15.9587 88.3867 16.0157 88.2678 16.0815V20.8627C88.1458 20.8961 88.0216 20.9205 87.8961 20.9357C87.7204 20.9591 87.5433 20.9705 87.3661 20.9698C87.0664 20.9941 86.7663 20.9263 86.5051 20.775C86.3277 20.6452 86.2389 20.392 86.2389 20.0155V15.8576C86.2296 15.6586 86.2807 15.4614 86.3852 15.2928C86.4974 15.1346 86.6362 14.9978 86.7953 14.8887C87.1269 14.6669 87.4924 14.5024 87.8769 14.4018C88.3142 14.2738 88.7672 14.2098 89.2223 14.2119C89.5789 14.2106 89.9337 14.2631 90.2751 14.3677C90.6046 14.4729 90.9126 14.6378 91.184 14.8546C91.4642 14.6671 91.7663 14.5158 92.0834 14.4042C92.4698 14.2742 92.8754 14.2124 93.2825 14.2217C93.616 14.2207 93.9481 14.2641 94.2705 14.3507C94.5715 14.4305 94.8531 14.5722 95.0979 14.767C95.3444 14.9703 95.5414 15.2285 95.6735 15.5216C95.8281 15.8744 95.9027 16.2579 95.8917 16.6439L95.8821 20.8627Z" fill="white"/>
<path d="M99.9519 14.2022C100.373 14.1985 100.793 14.2459 101.204 14.3434C101.548 14.4248 101.874 14.5736 102.163 14.7816C102.427 14.9766 102.638 15.2351 102.779 15.5338C102.932 15.8717 103.007 16.2406 102.998 16.6122V19.6528C103.007 19.8543 102.944 20.0525 102.82 20.2103C102.697 20.3523 102.551 20.4724 102.388 20.5657C102.076 20.7518 101.736 20.8842 101.381 20.9576C100.936 21.0508 100.483 21.0957 100.029 21.0915C99.1189 21.0915 98.3946 20.9146 97.8558 20.5608C97.5928 20.3868 97.3801 20.145 97.2393 19.8601C97.0986 19.5753 97.0349 19.2576 97.0548 18.9395C97.037 18.6786 97.0758 18.4169 97.1687 18.1729C97.2615 17.9289 97.406 17.7086 97.592 17.5276C97.9534 17.203 98.513 17.0017 99.2708 16.9238L101.033 16.734V16.5879C101.041 16.4601 101.012 16.3328 100.951 16.2209C100.89 16.1089 100.799 16.0167 100.688 15.955C100.379 15.8009 100.036 15.7305 99.6929 15.7505C99.3598 15.7491 99.0279 15.79 98.7048 15.8722C98.4086 15.943 98.1183 16.0374 97.8367 16.1546C97.7183 16.0694 97.6227 15.9556 97.5585 15.8235C97.4831 15.6728 97.4452 15.5056 97.4482 15.3366C97.4453 15.1474 97.5032 14.9624 97.6131 14.8096C97.723 14.6568 97.8789 14.5444 98.0573 14.4895C98.3463 14.3818 98.6464 14.3075 98.9518 14.2679C99.2833 14.2224 99.6174 14.2004 99.9519 14.2022ZM100.031 19.5578C100.225 19.5578 100.419 19.5383 100.609 19.4994C100.76 19.4731 100.905 19.4204 101.038 19.3436V18.1191L99.9519 18.2116C99.7129 18.2258 99.4797 18.2923 99.2684 18.4064C99.1874 18.4522 99.1206 18.5199 99.0753 18.602C99.03 18.6841 99.008 18.7773 99.0118 18.8713C99.0086 18.9698 99.0287 19.0676 99.0704 19.1566C99.1121 19.2455 99.1743 19.323 99.2516 19.3826C99.485 19.528 99.7581 19.5937 100.031 19.57V19.5578Z" fill="white"/>
</g>
<defs>
<linearGradient id="paint0_linear_12_27" x1="15.1202" y1="34.1909" x2="14.5101" y2="29.2757" gradientUnits="userSpaceOnUse">
<stop offset="0.29" stop-color="#3A8BFF"/>
<stop offset="1" stop-color="#81B5FF"/>
</linearGradient>
<linearGradient id="paint1_linear_12_27" x1="22.7704" y1="-3.29623" x2="10.774" y2="27.1487" gradientUnits="userSpaceOnUse">
<stop offset="0.29" stop-color="#0062EE"/>
<stop offset="1" stop-color="#00398A"/>
</linearGradient>
<linearGradient id="paint2_linear_12_27" x1="28.6916" y1="31.798" x2="32.7677" y2="8.84782" gradientUnits="userSpaceOnUse">
<stop offset="0.29" stop-color="#0062EE"/>
<stop offset="1" stop-color="#00398A"/>
</linearGradient>
<linearGradient id="paint3_linear_12_27" x1="23.972" y1="39.5636" x2="23.972" y2="18.2311" gradientUnits="userSpaceOnUse">
<stop offset="0.29" stop-color="#B3D2FF"/>
<stop offset="1" stop-color="white"/>
</linearGradient>
<linearGradient id="paint4_linear_12_27" x1="18.3362" y1="6.75055" x2="10.961" y2="2.23399" gradientUnits="userSpaceOnUse">
<stop offset="0.29" stop-color="#3A8BFF"/>
<stop offset="1" stop-color="#81B5FF"/>
</linearGradient>
<clipPath id="clip0_12_27">
<rect width="113" height="32" fill="white"/>
</clipPath>
</defs>
</svg>
