<svg width="220" height="32" viewBox="0 0 220 32" fill="none" xmlns="http://www.w3.org/2000/svg">
<g clip-path="url(#clip0_313_5)">
<g filter="url(#filter0_i_313_5)">
<path d="M60.7593 25.4943V16.7429C60.7593 15.6055 60.3994 14.6682 59.68 13.931C58.9612 13.1938 58.0299 12.8252 56.8878 12.8252C56.1259 12.8252 55.4491 12.9938 54.8567 13.3307C54.2643 13.6677 53.7989 14.1311 53.4604 14.7209C53.1219 15.3106 52.9527 15.9846 52.9527 16.7429L51.7785 16.0794C51.7785 14.942 52.0324 13.931 52.5401 13.0464C53.0479 12.1618 53.7566 11.4667 54.6663 10.9612C55.5758 10.4347 56.6021 10.1714 57.7443 10.1714C58.8869 10.1714 59.8919 10.4241 60.7593 10.9296C61.6479 11.4351 62.346 12.1407 62.8535 13.0464C63.3614 13.9521 63.6154 14.9947 63.6154 16.1742V25.4943H60.7593ZM50.0966 25.4943V2.9364H52.9527V25.4943H50.0966Z" fill="white"/>
<path d="M72.4327 25.6207L65.8952 10.4873H69.0686L73.9239 22.335H72.9085L78.0177 10.4873H81.1911L74.1462 25.6207H72.4327ZM68.1166 31.7815L72.5594 22.7141L74.1462 25.6207L71.2901 31.7815H68.1166Z" fill="white"/>
<path d="M91.3443 25.8103C90.2022 25.8103 89.1655 25.5786 88.2343 25.1152C87.3248 24.6308 86.595 23.9673 86.045 23.1248C85.495 22.2823 85.188 21.324 85.1247 20.2498V15.7319C85.188 14.6366 85.495 13.6783 86.045 12.8569C86.6159 12.0144 87.3565 11.3614 88.2664 10.8981C89.1972 10.4136 90.223 10.1714 91.3443 10.1714C92.7197 10.1714 93.9573 10.5189 95.0574 11.214C96.1783 11.909 97.0565 12.8463 97.6912 14.0258C98.3259 15.2053 98.6433 16.5323 98.6433 18.0067C98.6433 19.481 98.3259 20.808 97.6912 21.9875C97.0565 23.1669 96.1783 24.1042 95.0574 24.7993C93.9573 25.4733 92.7197 25.8103 91.3443 25.8103ZM90.8685 23.1248C91.8206 23.1248 92.6563 22.9036 93.3752 22.4614C94.0945 22.0191 94.6658 21.4188 95.0891 20.6605C95.5119 19.8812 95.7238 18.986 95.7238 17.9751C95.7238 16.9851 95.5119 16.1005 95.0891 15.3212C94.6658 14.5419 94.0945 13.9416 93.3752 13.5203C92.6563 13.078 91.831 12.8569 90.9002 12.8569C89.9482 12.8569 89.1125 13.078 88.3932 13.5203C87.6738 13.9416 87.1134 14.5419 86.7114 15.3212C86.3094 16.1005 86.1084 16.9956 86.1084 18.0067C86.1084 18.9966 86.2985 19.8812 86.6797 20.6605C87.0817 21.4188 87.6421 22.0191 88.3615 22.4614C89.1016 22.9036 89.9373 23.1248 90.8685 23.1248ZM83.4107 31.7815V10.4873H86.2668V14.4365L85.7277 18.0698L86.2668 21.7347V31.7815H83.4107Z" fill="white"/>
<path d="M108.863 25.8103C107.36 25.8103 106.006 25.4733 104.8 24.7993C103.594 24.1042 102.642 23.1669 101.944 21.9875C101.246 20.808 100.897 19.4705 100.897 17.9751C100.897 16.5007 101.236 15.1738 101.913 13.9942C102.611 12.8147 103.542 11.888 104.705 11.214C105.89 10.5189 107.212 10.1714 108.672 10.1714C110.068 10.1714 111.295 10.4873 112.353 11.1192C113.432 11.7511 114.268 12.6252 114.86 13.7415C115.474 14.8578 115.78 16.1215 115.78 17.5327C115.78 17.7434 115.77 17.9751 115.749 18.2278C115.727 18.4595 115.685 18.7333 115.622 19.0492H102.896V16.6797H114.099L113.051 17.5959C113.051 16.5849 112.872 15.7319 112.512 15.0368C112.152 14.3207 111.644 13.7731 110.988 13.394C110.333 12.9938 109.539 12.7937 108.609 12.7937C107.635 12.7937 106.779 13.0043 106.038 13.4256C105.298 13.8468 104.727 14.4365 104.325 15.1948C103.923 15.953 103.722 16.8482 103.722 17.8803C103.722 18.9334 103.933 19.8601 104.356 20.6605C104.779 21.4398 105.382 22.0506 106.165 22.493C106.948 22.9142 107.847 23.1248 108.863 23.1248C109.709 23.1248 110.481 22.9774 111.179 22.6825C111.898 22.3876 112.512 21.9453 113.02 21.3556L114.86 23.2196C114.141 24.0621 113.252 24.7045 112.194 25.1468C111.158 25.5891 110.047 25.8103 108.863 25.8103Z" fill="white"/>
<path d="M118.894 25.4943V10.4873H121.751V25.4943H118.894ZM121.751 16.9324L120.672 16.4585C120.672 14.5419 121.116 13.0148 122.005 11.8774C122.893 10.7401 124.173 10.1714 125.844 10.1714C126.606 10.1714 127.293 10.3083 127.907 10.5821C128.52 10.8349 129.092 11.2666 129.62 11.8774L127.748 13.8046C127.431 13.4677 127.082 13.2254 126.701 13.078C126.32 12.9306 125.876 12.8569 125.368 12.8569C124.311 12.8569 123.443 13.1939 122.766 13.8678C122.089 14.5419 121.751 15.5634 121.751 16.9324Z" fill="white"/>
<path d="M136.082 25.8103C135.236 25.8103 134.432 25.705 133.671 25.4943C132.93 25.2627 132.242 24.9467 131.608 24.5466C130.973 24.1253 130.423 23.6303 129.958 23.0616L131.798 21.2292C132.348 21.9032 132.983 22.4087 133.702 22.7457C134.422 23.0616 135.226 23.2196 136.114 23.2196C137.003 23.2196 137.69 23.0722 138.177 22.7773C138.664 22.4614 138.907 22.0295 138.907 21.4819C138.907 20.9343 138.706 20.5131 138.304 20.2182C137.923 19.9023 137.426 19.6495 136.812 19.46C136.199 19.2493 135.543 19.0492 134.845 18.8597C134.168 18.649 133.523 18.3857 132.909 18.0698C132.295 17.7539 131.788 17.3221 131.386 16.7745C131.005 16.2269 130.815 15.5002 130.815 14.5945C130.815 13.6888 131.037 12.9095 131.481 12.2566C131.925 11.5826 132.539 11.0665 133.322 10.7085C134.126 10.3504 135.088 10.1714 136.209 10.1714C137.394 10.1714 138.441 10.382 139.351 10.8033C140.282 11.2035 141.043 11.8142 141.636 12.6357L139.795 14.4681C139.372 13.9205 138.843 13.4993 138.209 13.2044C137.595 12.9095 136.897 12.7621 136.114 12.7621C135.289 12.7621 134.654 12.9095 134.21 13.2044C133.787 13.4782 133.576 13.8678 133.576 14.3733C133.576 14.8789 133.766 15.2685 134.146 15.5423C134.527 15.8161 135.025 16.0478 135.638 16.2374C136.273 16.4269 136.929 16.627 137.606 16.8377C138.282 17.0272 138.928 17.2905 139.541 17.6275C140.155 17.9645 140.652 18.4173 141.033 18.986C141.435 19.5547 141.636 20.3025 141.636 21.2292C141.636 22.6404 141.128 23.7567 140.113 24.5781C139.118 25.3996 137.775 25.8103 136.082 25.8103Z" fill="white"/>
<path d="M152.767 25.8103C151.624 25.8103 150.588 25.5786 149.657 25.1152C148.747 24.6308 148.017 23.9673 147.467 23.1248C146.917 22.2823 146.61 21.324 146.547 20.2498V15.7319C146.61 14.6366 146.917 13.6783 147.467 12.8569C148.038 12.0144 148.779 11.3614 149.689 10.8981C150.619 10.4136 151.645 10.1714 152.767 10.1714C154.142 10.1714 155.38 10.5189 156.48 11.214C157.601 11.909 158.479 12.8463 159.113 14.0258C159.748 15.2053 160.066 16.5323 160.066 18.0067C160.066 19.481 159.748 20.808 159.113 21.9875C158.479 23.1669 157.601 24.1042 156.48 24.7993C155.38 25.4733 154.142 25.8103 152.767 25.8103ZM152.291 23.1248C153.243 23.1248 154.079 22.9036 154.797 22.4614C155.517 22.0191 156.088 21.4188 156.511 20.6605C156.934 19.8812 157.146 18.986 157.146 17.9751C157.146 16.9851 156.934 16.1005 156.511 15.3212C156.088 14.5419 155.517 13.9416 154.797 13.5203C154.079 13.078 153.253 12.8569 152.322 12.8569C151.37 12.8569 150.535 13.078 149.815 13.5203C149.096 13.9416 148.536 14.5419 148.134 15.3212C147.732 16.1005 147.531 16.9956 147.531 18.0067C147.531 18.9966 147.721 19.8812 148.102 20.6605C148.504 21.4188 149.064 22.0191 149.784 22.4614C150.524 22.9036 151.36 23.1248 152.291 23.1248ZM144.833 31.7815V10.4873H147.689V14.4365L147.15 18.0698L147.689 21.7347V31.7815H144.833Z" fill="white"/>
<path d="M169.714 25.8103C168.338 25.8103 167.09 25.4733 165.969 24.7993C164.848 24.1042 163.959 23.1669 163.303 21.9875C162.669 20.808 162.351 19.481 162.351 18.0067C162.351 16.5323 162.669 15.2053 163.303 14.0258C163.959 12.8463 164.837 11.909 165.937 11.214C167.058 10.5189 168.317 10.1714 169.714 10.1714C170.856 10.1714 171.872 10.4136 172.76 10.8981C173.67 11.3614 174.399 12.0144 174.949 12.8569C175.499 13.6783 175.806 14.6366 175.87 15.7319V20.2498C175.806 21.324 175.499 22.2823 174.949 23.1248C174.421 23.9673 173.701 24.6308 172.792 25.1152C171.903 25.5786 170.877 25.8103 169.714 25.8103ZM170.189 23.1248C171.607 23.1248 172.749 22.6509 173.617 21.7031C174.484 20.7342 174.918 19.5021 174.918 18.0067C174.918 16.9746 174.717 16.0794 174.315 15.3212C173.934 14.5419 173.384 13.9416 172.665 13.5203C171.945 13.078 171.11 12.8569 170.158 12.8569C169.206 12.8569 168.359 13.078 167.619 13.5203C166.9 13.9626 166.329 14.5735 165.905 15.3528C165.503 16.111 165.302 16.9851 165.302 17.9751C165.302 18.986 165.503 19.8812 165.905 20.6605C166.329 21.4188 166.91 22.019 167.651 22.4614C168.391 22.9036 169.238 23.1248 170.189 23.1248ZM174.728 25.4943V21.4503L175.267 17.7855L174.728 14.1522V10.4873H177.615V25.4943H174.728Z" fill="white"/>
<path d="M188.66 25.8103C187.179 25.8103 185.835 25.4627 184.63 24.7677C183.444 24.0726 182.503 23.1354 181.805 21.9559C181.128 20.7553 180.79 19.4284 180.79 17.9751C180.79 16.5007 181.128 15.1738 181.805 13.9942C182.503 12.8147 183.444 11.888 184.63 11.214C185.835 10.5189 187.179 10.1714 188.66 10.1714C189.823 10.1714 190.902 10.3925 191.896 10.8349C192.891 11.2561 193.748 11.8774 194.467 12.6989L192.563 14.5945C192.097 14.0469 191.526 13.6362 190.849 13.3624C190.193 13.0675 189.464 12.9201 188.66 12.9201C187.708 12.9201 186.861 13.1412 186.121 13.5835C185.381 14.0048 184.798 14.5945 184.376 15.3528C183.952 16.111 183.741 16.9851 183.741 17.9751C183.741 18.965 183.952 19.8391 184.376 20.5973C184.798 21.3556 185.381 21.9559 186.121 22.3982C186.861 22.8405 187.708 23.0616 188.66 23.0616C189.464 23.0616 190.193 22.9247 190.849 22.6509C191.526 22.356 192.108 21.9348 192.594 21.3872L194.467 23.2828C193.769 24.0831 192.912 24.7045 191.896 25.1468C190.902 25.5891 189.823 25.8103 188.66 25.8103Z" fill="white"/>
<path d="M204.002 25.8103C202.5 25.8103 201.146 25.4733 199.94 24.7993C198.734 24.1042 197.782 23.1669 197.084 21.9875C196.386 20.808 196.037 19.4705 196.037 17.9751C196.037 16.5007 196.375 15.1738 197.052 13.9942C197.75 12.8147 198.681 11.888 199.845 11.214C201.03 10.5189 202.352 10.1714 203.812 10.1714C205.208 10.1714 206.435 10.4873 207.492 11.1192C208.572 11.7511 209.407 12.6252 210 13.7415C210.613 14.8578 210.92 16.1215 210.92 17.5327C210.92 17.7434 210.909 17.9751 210.888 18.2278C210.867 18.4595 210.825 18.7333 210.761 19.0492H198.036V16.6797H209.238L208.191 17.5959C208.191 16.5849 208.011 15.7319 207.651 15.0368C207.291 14.3207 206.784 13.7731 206.128 13.394C205.472 12.9938 204.679 12.7937 203.748 12.7937C202.775 12.7937 201.918 13.0043 201.178 13.4256C200.437 13.8468 199.866 14.4365 199.464 15.1948C199.062 15.953 198.861 16.8482 198.861 17.8803C198.861 18.9334 199.073 19.8601 199.496 20.6605C199.919 21.4398 200.522 22.0506 201.304 22.493C202.087 22.9142 202.986 23.1248 204.002 23.1248C204.848 23.1248 205.621 22.9774 206.319 22.6825C207.038 22.3876 207.651 21.9453 208.159 21.3556L210 23.2196C209.28 24.0621 208.392 24.7045 207.334 25.1468C206.297 25.5891 205.187 25.8103 204.002 25.8103Z" fill="white"/>
</g>
<path d="M25.252 0.000488281H17.7569L12.1058 12.019C10.5744 15.2759 9.80867 16.9043 10.0407 18.1483C10.2447 19.2425 10.973 20.1322 12.1212 20.6897C13.4264 21.3236 15.5253 21.3236 19.7229 21.3236H25.2193L27.5891 16.2836C27.7167 16.0121 27.7806 15.8764 27.7612 15.7728C27.7442 15.6816 27.6835 15.6075 27.5878 15.561C27.4791 15.5082 27.3042 15.5082 26.9544 15.5082H21.9576C20.5584 15.5082 19.8588 15.5082 19.4237 15.2969C19.041 15.1111 18.7982 14.8145 18.7302 14.4497C18.6529 14.0351 18.9081 13.4923 19.4186 12.4066L25.252 0.000488281Z" fill="white"/>
<path d="M23.0391 29.523H30.5341L36.1852 17.5046C37.7166 14.2476 38.4824 12.6192 38.2504 11.3752C38.0463 10.281 37.318 9.39134 36.1698 8.83378C34.8646 8.19995 32.7658 8.19995 28.5681 8.19995H23.0717L20.7019 13.24C20.5743 13.5114 20.5105 13.6471 20.5298 13.7507C20.5468 13.8419 20.6075 13.9161 20.7032 13.9625C20.8119 14.0153 20.9869 14.0153 21.3367 14.0153H26.3334C27.7326 14.0153 28.4322 14.0153 28.8673 14.2266C29.25 14.4125 29.4928 14.709 29.5608 15.0737C29.6381 15.4884 29.3829 16.0312 28.8724 17.1169L23.0391 29.523Z" fill="white"/>
</g>
<defs>
<filter id="filter0_i_313_5" x="50.0966" y="2.9364" width="160.823" height="28.8451" filterUnits="userSpaceOnUse" color-interpolation-filters="sRGB">
<feFlood flood-opacity="0" result="BackgroundImageFix"/>
<feBlend mode="normal" in="SourceGraphic" in2="BackgroundImageFix" result="shape"/>
<feColorMatrix in="SourceAlpha" type="matrix" values="0 0 0 0 0 0 0 0 0 0 0 0 0 0 0 0 0 0 127 0" result="hardAlpha"/>
<feOffset/>
<feGaussianBlur stdDeviation="0.064"/>
<feComposite in2="hardAlpha" operator="arithmetic" k2="-1" k3="1"/>
<feColorMatrix type="matrix" values="0 0 0 0 1 0 0 0 0 1 0 0 0 0 1 0 0 0 1 0"/>
<feBlend mode="normal" in2="shape" result="effect1_innerShadow_313_5"/>
</filter>
<clipPath id="clip0_313_5">
<rect width="201" height="32" fill="white" transform="translate(10)"/>
</clipPath>
</defs>
</svg>
