<svg width="171" height="32" viewBox="0 0 171 32" fill="none" xmlns="http://www.w3.org/2000/svg">
<g clip-path="url(#clip0_313_5)">
<g filter="url(#filter0_i_313_5)">
<path d="M48.0695 23.1207V16.5571C48.0695 15.7041 47.7995 15.0011 47.26 14.4482C46.7209 13.8953 46.0225 13.6189 45.1658 13.6189C44.5944 13.6189 44.0868 13.7453 43.6425 13.998C43.1982 14.2508 42.8492 14.5983 42.5953 15.0406C42.3414 15.4829 42.2145 15.9884 42.2145 16.5571L41.3339 16.0595C41.3339 15.2065 41.5243 14.4482 41.9051 13.7848C42.2859 13.1213 42.8175 12.6 43.4997 12.2209C44.1819 11.826 44.9516 11.6285 45.8082 11.6285C46.6652 11.6285 47.4189 11.8181 48.0695 12.1972C48.736 12.5763 49.2595 13.1055 49.6401 13.7848C50.0211 14.464 50.2115 15.246 50.2115 16.1306V23.1207H48.0695ZM40.0725 23.1207V6.20227H42.2145V23.1207H40.0725Z" fill="white"/>
<path d="M56.8245 23.2155L51.9214 11.8654H54.3015L57.9429 20.7512H57.1814L61.0133 11.8654H63.3933L58.1096 23.2155H56.8245ZM53.5875 27.836L56.9196 21.0355L58.1096 23.2155L55.9675 27.836H53.5875Z" fill="white"/>
<path d="M71.0083 23.3576C70.1516 23.3576 69.3741 23.1839 68.6757 22.8363C67.9936 22.473 67.4463 21.9754 67.0338 21.3435C66.6212 20.7117 66.391 19.9929 66.3435 19.1873V15.7989C66.391 14.9774 66.6212 14.2587 67.0338 13.6426C67.4619 13.0107 68.0174 12.521 68.6998 12.1735C69.3979 11.8101 70.1673 11.6285 71.0083 11.6285C72.0397 11.6285 72.968 11.8891 73.7931 12.4104C74.6337 12.9317 75.2924 13.6347 75.7684 14.5193C76.2444 15.4039 76.4825 16.3991 76.4825 17.5049C76.4825 18.6107 76.2444 19.6059 75.7684 20.4905C75.2924 21.3751 74.6337 22.0781 73.7931 22.5994C72.968 23.1049 72.0397 23.3576 71.0083 23.3576ZM70.6514 21.3435C71.3654 21.3435 71.9922 21.1777 72.5314 20.846C73.0709 20.5142 73.4994 20.064 73.8168 19.4953C74.1339 18.9108 74.2928 18.2395 74.2928 17.4812C74.2928 16.7388 74.1339 16.0753 73.8168 15.4908C73.4994 14.9063 73.0709 14.4561 72.5314 14.1402C71.9922 13.8085 71.3732 13.6426 70.6752 13.6426C69.9612 13.6426 69.3344 13.8085 68.7949 14.1402C68.2554 14.4561 67.835 14.9063 67.5335 15.4908C67.232 16.0753 67.0813 16.7467 67.0813 17.5049C67.0813 18.2474 67.2239 18.9108 67.5098 19.4953C67.8113 20.064 68.2316 20.5142 68.7711 20.846C69.3262 21.1777 69.953 21.3435 70.6514 21.3435ZM65.058 27.836V11.8654H67.2001V14.8273L66.7957 17.5523L67.2001 20.301V27.836H65.058Z" fill="white"/>
<path d="M84.1469 23.3577C83.0204 23.3577 82.0049 23.1049 81.1004 22.5994C80.1959 22.0781 79.4818 21.3752 78.9583 20.4905C78.4347 19.6059 78.173 18.6028 78.173 17.4812C78.173 16.3754 78.4269 15.3803 78.9345 14.4956C79.4581 13.611 80.1565 12.9159 81.0291 12.4104C81.9176 11.8891 82.9094 11.6285 84.004 11.6285C85.0511 11.6285 85.9716 11.8654 86.765 12.3394C87.5741 12.8132 88.2009 13.4688 88.645 14.3061C89.1054 15.1433 89.3353 16.0911 89.3353 17.1495C89.3353 17.3075 89.3274 17.4812 89.3115 17.6708C89.2955 17.8445 89.2639 18.0499 89.2164 18.2869H79.6723V16.5097H88.0739L87.2886 17.1969C87.2886 16.4386 87.1538 15.7989 86.8839 15.2776C86.6143 14.7405 86.2333 14.3297 85.7414 14.0454C85.2497 13.7453 84.6545 13.5952 83.9565 13.5952C83.2265 13.5952 82.5841 13.7532 82.0286 14.0691C81.4732 14.385 81.045 14.8273 80.7435 15.396C80.442 15.9647 80.2913 16.6361 80.2913 17.4101C80.2913 18.2 80.4498 18.895 80.7673 19.4953C81.0844 20.0798 81.5367 20.5379 82.1237 20.8697C82.7107 21.1856 83.3854 21.3435 84.1469 21.3435C84.7815 21.3435 85.3607 21.233 85.8843 21.0118C86.4238 20.7907 86.8839 20.4589 87.2648 20.0166L88.645 21.4146C88.1055 22.0465 87.4393 22.5283 86.6459 22.86C85.8683 23.1918 85.0355 23.3577 84.1469 23.3577Z" fill="white"/>
<path d="M91.6708 23.1207V11.8654H93.8129V23.1207H91.6708ZM93.8129 16.6993L93.0038 16.3438C93.0038 14.9063 93.3369 13.7611 94.0034 12.908C94.6699 12.055 95.6297 11.6285 96.8833 11.6285C97.4543 11.6285 97.9701 11.7312 98.4301 11.9365C98.8902 12.1261 99.3187 12.4499 99.7152 12.908L98.3113 14.3534C98.0733 14.1007 97.8115 13.919 97.5256 13.8085C97.2401 13.6979 96.907 13.6426 96.5261 13.6426C95.7329 13.6426 95.0824 13.8953 94.5745 14.4008C94.0669 14.9063 93.8129 15.6725 93.8129 16.6993Z" fill="white"/>
<path d="M104.562 23.3577C103.927 23.3577 103.324 23.2787 102.753 23.1207C102.198 22.9469 101.682 22.71 101.206 22.4099C100.73 22.0939 100.317 21.7227 99.9682 21.2962L101.349 19.9218C101.761 20.4273 102.237 20.8065 102.777 21.0592C103.316 21.2962 103.919 21.4146 104.585 21.4146C105.252 21.4146 105.768 21.3041 106.133 21.0829C106.498 20.846 106.68 20.5221 106.68 20.1114C106.68 19.7007 106.529 19.3847 106.228 19.1636C105.942 18.9266 105.569 18.7371 105.109 18.5949C104.649 18.4369 104.157 18.2869 103.633 18.1447C103.126 17.9867 102.642 17.7892 102.182 17.5523C101.722 17.3154 101.341 16.9915 101.039 16.5808C100.754 16.1701 100.611 15.6251 100.611 14.9458C100.611 14.2666 100.778 13.6821 101.111 13.1924C101.444 12.6869 101.904 12.2998 102.491 12.0313C103.094 11.7627 103.816 11.6285 104.657 11.6285C105.546 11.6285 106.331 11.7864 107.013 12.1024C107.711 12.4025 108.283 12.8606 108.727 13.4767L107.347 14.851C107.029 14.4403 106.632 14.1244 106.156 13.9032C105.696 13.6821 105.173 13.5715 104.585 13.5715C103.967 13.5715 103.491 13.6821 103.157 13.9032C102.84 14.1086 102.682 14.4008 102.682 14.78C102.682 15.1591 102.824 15.4513 103.11 15.6567C103.395 15.862 103.769 16.0358 104.229 16.178C104.705 16.3201 105.197 16.4702 105.704 16.6282C106.212 16.7704 106.696 16.9678 107.156 17.2206C107.616 17.4733 107.989 17.8129 108.275 18.2395C108.576 18.666 108.727 19.2268 108.727 19.9218C108.727 20.9802 108.346 21.8175 107.585 22.4336C106.839 23.0496 105.831 23.3577 104.562 23.3577Z" fill="white"/>
<path d="M117.075 23.3576C116.218 23.3576 115.441 23.1839 114.743 22.8363C114.06 22.473 113.513 21.9754 113.1 21.3435C112.688 20.7117 112.458 19.9929 112.41 19.1873V15.7989C112.458 14.9774 112.688 14.2587 113.1 13.6426C113.529 13.0107 114.084 12.521 114.766 12.1735C115.465 11.8101 116.234 11.6285 117.075 11.6285C118.106 11.6285 119.035 11.8891 119.86 12.4104C120.701 12.9317 121.359 13.6347 121.835 14.5193C122.311 15.4039 122.549 16.3991 122.549 17.5049C122.549 18.6107 122.311 19.6059 121.835 20.4905C121.359 21.3751 120.701 22.0781 119.86 22.5994C119.035 23.1049 118.106 23.3576 117.075 23.3576ZM116.718 21.3435C117.432 21.3435 118.059 21.1777 118.598 20.846C119.138 20.5142 119.566 20.064 119.883 19.4953C120.201 18.9108 120.36 18.2395 120.36 17.4812C120.36 16.7388 120.201 16.0753 119.883 15.4908C119.566 14.9063 119.138 14.4561 118.598 14.1402C118.059 13.8085 117.44 13.6426 116.742 13.6426C116.028 13.6426 115.401 13.8085 114.862 14.1402C114.322 14.4561 113.902 14.9063 113.6 15.4908C113.299 16.0753 113.148 16.7467 113.148 17.5049C113.148 18.2474 113.291 18.9108 113.576 19.4953C113.878 20.064 114.298 20.5142 114.838 20.846C115.393 21.1777 116.02 21.3435 116.718 21.3435ZM111.125 27.836V11.8654H113.267V14.8273L112.862 17.5523L113.267 20.301V27.836H111.125Z" fill="white"/>
<path d="M129.785 23.3577C128.754 23.3577 127.818 23.1049 126.977 22.5994C126.136 22.0781 125.469 21.3752 124.977 20.4905C124.501 19.6059 124.263 18.6107 124.263 17.5049C124.263 16.3991 124.501 15.4039 124.977 14.5193C125.469 13.6347 126.128 12.9317 126.953 12.4104C127.794 11.8891 128.738 11.6285 129.785 11.6285C130.642 11.6285 131.404 11.8101 132.07 12.1735C132.752 12.521 133.3 13.0107 133.712 13.6426C134.125 14.2587 134.355 14.9774 134.402 15.7989V19.1873C134.355 19.9929 134.125 20.7117 133.712 21.3435C133.316 21.9754 132.776 22.473 132.094 22.8363C131.427 23.1839 130.658 23.3577 129.785 23.3577ZM130.142 21.3435C131.205 21.3435 132.062 20.9881 132.713 20.2773C133.363 19.5506 133.688 18.6265 133.688 17.5049C133.688 16.7309 133.538 16.0595 133.236 15.4908C132.951 14.9063 132.538 14.4561 131.999 14.1402C131.459 13.8085 130.832 13.6426 130.118 13.6426C129.404 13.6426 128.77 13.8085 128.214 14.1402C127.675 14.4719 127.246 14.93 126.929 15.5145C126.628 16.0832 126.477 16.7388 126.477 17.4812C126.477 18.2395 126.628 18.9108 126.929 19.4953C127.246 20.064 127.683 20.5142 128.238 20.846C128.793 21.1777 129.428 21.3435 130.142 21.3435ZM133.546 23.1207V20.0877L133.95 17.3391L133.546 14.6141V11.8654H135.712V23.1207H133.546Z" fill="white"/>
<path d="M143.995 23.3577C142.884 23.3577 141.876 23.097 140.972 22.5757C140.083 22.0544 139.377 21.3515 138.854 20.4668C138.346 19.5664 138.092 18.5712 138.092 17.4812C138.092 16.3754 138.346 15.3803 138.854 14.4956C139.377 13.611 140.083 12.9159 140.972 12.4104C141.876 11.8891 142.884 11.6285 143.995 11.6285C144.867 11.6285 145.677 11.7943 146.422 12.1261C147.168 12.442 147.811 12.908 148.35 13.5241L146.922 14.9458C146.573 14.5351 146.145 14.2271 145.637 14.0217C145.145 13.8005 144.598 13.69 143.995 13.69C143.281 13.69 142.646 13.8558 142.091 14.1876C141.535 14.5035 141.099 14.9458 140.782 15.5145C140.464 16.0832 140.306 16.7388 140.306 17.4812C140.306 18.2237 140.464 18.8793 140.782 19.4479C141.099 20.0166 141.535 20.4668 142.091 20.7986C142.646 21.1303 143.281 21.2962 143.995 21.2962C144.598 21.2962 145.145 21.1935 145.637 20.9881C146.145 20.767 146.581 20.451 146.946 20.0403L148.35 21.462C147.827 22.0623 147.184 22.5283 146.422 22.86C145.677 23.1918 144.867 23.3577 143.995 23.3577Z" fill="white"/>
<path d="M155.502 23.3577C154.375 23.3577 153.36 23.1049 152.455 22.5994C151.551 22.0781 150.837 21.3752 150.313 20.4905C149.789 19.6059 149.528 18.6028 149.528 17.4812C149.528 16.3754 149.781 15.3803 150.289 14.4956C150.813 13.611 151.511 12.9159 152.384 12.4104C153.272 11.8891 154.264 11.6285 155.359 11.6285C156.406 11.6285 157.326 11.8654 158.119 12.3394C158.929 12.8132 159.556 13.4688 160 14.3061C160.46 15.1433 160.69 16.0911 160.69 17.1495C160.69 17.3075 160.682 17.4812 160.666 17.6708C160.65 17.8445 160.619 18.0499 160.571 18.2869H151.027V16.5097H159.429L158.643 17.1969C158.643 16.4386 158.508 15.7989 158.239 15.2776C157.969 14.7405 157.588 14.3297 157.096 14.0454C156.604 13.7453 156.009 13.5952 155.311 13.5952C154.581 13.5952 153.938 13.7532 153.383 14.0691C152.828 14.385 152.399 14.8273 152.098 15.396C151.796 15.9647 151.646 16.6361 151.646 17.4101C151.646 18.2 151.804 18.895 152.122 19.4953C152.439 20.0798 152.891 20.5379 153.478 20.8697C154.065 21.1856 154.74 21.3435 155.502 21.3435C156.136 21.3435 156.715 21.233 157.239 21.0118C157.778 20.7907 158.239 20.4589 158.619 20.0166L160 21.4146C159.46 22.0465 158.794 22.5283 158.001 22.86C157.223 23.1918 156.39 23.3577 155.502 23.3577Z" fill="white"/>
</g>
<path d="M21.4389 4.00049H15.8176L11.5793 13.0143C10.4307 15.457 9.85646 16.6784 10.0305 17.6114C10.1835 18.432 10.7297 19.0993 11.5908 19.5174C12.5698 19.9928 14.1439 19.9928 17.2921 19.9928H21.4144L23.1918 16.2128C23.2875 16.0092 23.3354 15.9075 23.3209 15.8297C23.3081 15.7613 23.2626 15.7057 23.1908 15.6709C23.1093 15.6313 22.9781 15.6313 22.7157 15.6313H18.9682C17.9188 15.6313 17.3941 15.6313 17.0677 15.4728C16.7807 15.3334 16.5986 15.111 16.5476 14.8374C16.4896 14.5264 16.6811 14.1193 17.0639 13.3051L21.4389 4.00049Z" fill="white"/>
<path d="M19.7793 26.1422H25.4006L29.6389 17.1284C30.7875 14.6857 31.3618 13.4644 31.1878 12.5314C31.0347 11.7107 30.4885 11.0435 29.6274 10.6253C28.6484 10.15 27.0743 10.15 23.9261 10.15H19.8038L18.0264 13.93C17.9307 14.1335 17.8829 14.2353 17.8974 14.313C17.9101 14.3814 17.9556 14.437 18.0274 14.4719C18.109 14.5115 18.2401 14.5115 18.5025 14.5115H22.2501C23.2995 14.5115 23.8242 14.5115 24.1505 14.6699C24.4375 14.8093 24.6196 15.0317 24.6706 15.3053C24.7286 15.6163 24.5372 16.0234 24.1543 16.8376L19.7793 26.1422Z" fill="white"/>
</g>
<defs>
<filter id="filter0_i_313_5" x="40.0725" y="6.20227" width="120.617" height="21.6338" filterUnits="userSpaceOnUse" color-interpolation-filters="sRGB">
<feFlood flood-opacity="0" result="BackgroundImageFix"/>
<feBlend mode="normal" in="SourceGraphic" in2="BackgroundImageFix" result="shape"/>
<feColorMatrix in="SourceAlpha" type="matrix" values="0 0 0 0 0 0 0 0 0 0 0 0 0 0 0 0 0 0 127 0" result="hardAlpha"/>
<feOffset/>
<feGaussianBlur stdDeviation="0.064"/>
<feComposite in2="hardAlpha" operator="arithmetic" k2="-1" k3="1"/>
<feColorMatrix type="matrix" values="0 0 0 0 1 0 0 0 0 1 0 0 0 0 1 0 0 0 1 0"/>
<feBlend mode="normal" in2="shape" result="effect1_innerShadow_313_5"/>
</filter>
<clipPath id="clip0_313_5">
<rect width="150.75" height="24" fill="white" transform="translate(10 4)"/>
</clipPath>
</defs>
</svg>
