<svg width="64" height="64" viewBox="0 0 64 64" fill="none" xmlns="http://www.w3.org/2000/svg">
<path d="M16.6624 55.9786L15.0364 40.5083" stroke="black" stroke-width="1.06667" stroke-linecap="round" stroke-linejoin="round"/>
<path fill-rule="evenodd" clip-rule="evenodd" d="M23.6382 37.3319C17.0081 38.0287 15.0303 40.4711 15.0303 40.4711L12.2429 13.9505C12.2429 13.9505 14.2207 11.5082 20.8508 10.8113C24.1659 10.4629 27.0446 11.2775 29.9233 12.0922C32.802 12.9069 35.6807 13.7215 38.9958 13.3731C45.6259 12.6763 47.6037 10.2339 47.6037 10.2339L50.3911 36.7545C50.3911 36.7545 48.4133 39.1968 41.7832 39.8937C38.4681 40.2421 35.5894 39.4275 32.7107 38.6128C29.832 37.7981 26.9533 36.9835 23.6382 37.3319ZM37.6522 31.9549L40.1462 28.731C40.1847 28.6813 40.2075 28.6218 40.2118 28.5598C40.2162 28.4978 40.2019 28.436 40.1707 28.3819C40.1394 28.3279 40.0926 28.2841 40.0361 28.2558C39.9795 28.2275 39.9156 28.2159 39.8523 28.2226L26.5705 29.6186C26.4814 29.6281 26.3953 29.6553 26.3173 29.6985C26.2393 29.7418 26.1711 29.8001 26.1171 29.87L23.6209 33.0941C23.5824 33.1438 23.5596 33.2033 23.5553 33.2654C23.5509 33.3274 23.5652 33.3892 23.5964 33.4432C23.6277 33.4972 23.6744 33.5411 23.731 33.5694C23.7875 33.5977 23.8514 33.6092 23.9148 33.6026L37.1974 32.2065C37.2866 32.1972 37.3731 32.17 37.4513 32.1267C37.5296 32.0834 37.598 32.025 37.6522 31.9549ZM36.4921 23.0003C36.5776 23.0263 36.6567 23.0693 36.7243 23.1266L39.8341 25.7615C39.8821 25.8021 39.9167 25.8556 39.9339 25.9153C39.951 25.9751 39.9499 26.0385 39.9306 26.0979C39.9112 26.1572 39.8746 26.2098 39.8252 26.2492C39.7758 26.2887 39.7157 26.3133 39.6523 26.3199L26.3705 27.7159C26.2814 27.7251 26.1915 27.7164 26.1062 27.6903C26.0209 27.6642 25.9421 27.6213 25.8747 27.5642L22.7628 24.9296C22.7148 24.8889 22.6801 24.8354 22.663 24.7757C22.6458 24.7159 22.647 24.6525 22.6663 24.5932C22.6856 24.5339 22.7222 24.4813 22.7716 24.4418C22.8211 24.4023 22.8812 24.3778 22.9445 24.3711L36.2271 22.9751C36.3164 22.9656 36.4066 22.9742 36.4921 23.0003ZM36.0271 21.0724L22.7446 22.4685C22.6812 22.475 22.6174 22.4633 22.561 22.4349C22.5045 22.4066 22.4579 22.3627 22.4267 22.3087C22.3956 22.2547 22.3814 22.193 22.3857 22.131C22.3901 22.0691 22.4129 22.0096 22.4514 21.9599L24.9468 18.7359C25.0009 18.666 25.069 18.6077 25.147 18.5644C25.225 18.5212 25.3112 18.494 25.4002 18.4845L38.682 17.0885C38.7454 17.0818 38.8093 17.0934 38.8659 17.1217C38.9224 17.15 38.9691 17.1938 39.0005 17.2478C39.0316 17.3019 39.0459 17.3637 39.0416 17.4257C39.0372 17.4877 39.0144 17.5472 38.976 17.5969L36.4819 20.8208C36.4277 20.8909 36.3593 20.9493 36.2811 20.9926C36.2029 21.0359 36.1164 21.0631 36.0271 21.0724Z" fill="url(#paint0_linear_102_23)"/>
<path d="M15.0303 40.4711L14.4999 40.5268C14.5225 40.7414 14.672 40.9212 14.8789 40.9825C15.0857 41.0437 15.3091 40.9744 15.4448 40.8067L15.0303 40.4711ZM12.2429 13.9505L11.8284 13.6149C11.7394 13.7248 11.6977 13.8656 11.7125 14.0062L12.2429 13.9505ZM29.9233 12.0922L29.7781 12.6054L29.7781 12.6054L29.9233 12.0922ZM47.6037 10.2339L48.1341 10.1782C48.1115 9.96365 47.962 9.78382 47.7552 9.72256C47.5483 9.66129 47.325 9.73065 47.1892 9.89829L47.6037 10.2339ZM50.3911 36.7545L50.8056 37.0901C50.8946 36.9802 50.9363 36.8394 50.9215 36.6988L50.3911 36.7545ZM32.7107 38.6128L32.5655 39.126L32.5655 39.126L32.7107 38.6128ZM40.1462 28.731L40.5681 29.0574L40.5681 29.0573L40.1462 28.731ZM37.6522 31.9549L38.0739 32.2814L38.074 32.2813L37.6522 31.9549ZM40.2118 28.5598L40.7439 28.5971L40.7439 28.5971L40.2118 28.5598ZM40.1707 28.3819L40.6327 28.1154L40.632 28.1142L40.1707 28.3819ZM40.0361 28.2558L40.2751 27.779L40.2746 27.7787L40.0361 28.2558ZM39.8523 28.2226L39.908 28.753L39.8523 28.2226ZM26.5705 29.6186L26.5147 29.0881L26.5138 29.0882L26.5705 29.6186ZM26.3173 29.6985L26.5759 30.165L26.5759 30.1649L26.3173 29.6985ZM26.1171 29.87L25.6954 29.5435L25.6954 29.5435L26.1171 29.87ZM23.6209 33.0941L24.0426 33.4206L24.0426 33.4206L23.6209 33.0941ZM23.5964 33.4432L24.0582 33.1763L24.0582 33.1763L23.5964 33.4432ZM23.731 33.5694L23.4922 34.0463L23.4923 34.0463L23.731 33.5694ZM37.1974 32.2065L37.1419 31.6761L37.1416 31.6761L37.1974 32.2065ZM36.7243 23.1266L37.069 22.7197L37.0689 22.7196L36.7243 23.1266ZM36.4921 23.0003L36.6476 22.4901L36.6475 22.4901L36.4921 23.0003ZM39.8341 25.7615L40.179 25.3547L40.1789 25.3545L39.8341 25.7615ZM39.9339 25.9153L40.4465 25.7682L40.4465 25.7682L39.9339 25.9153ZM39.9306 26.0979L40.4375 26.2638L40.4379 26.2625L39.9306 26.0979ZM39.8252 26.2492L40.1578 26.6662L40.1582 26.6659L39.8252 26.2492ZM39.6523 26.3199L39.708 26.8503L39.6523 26.3199ZM26.3705 27.7159L26.4254 28.2464L26.4262 28.2463L26.3705 27.7159ZM26.1062 27.6903L25.9501 28.2003L25.9502 28.2003L26.1062 27.6903ZM25.8747 27.5642L25.5301 27.9713L25.5301 27.9713L25.8747 27.5642ZM22.7628 24.9296L22.4181 25.3366L22.4182 25.3366L22.7628 24.9296ZM22.663 24.7757L22.1503 24.9228L22.1503 24.9228L22.663 24.7757ZM22.6663 24.5932L22.1591 24.4281L22.1591 24.4281L22.6663 24.5932ZM22.7716 24.4418L23.1043 24.8586L23.1043 24.8586L22.7716 24.4418ZM36.2271 22.9751L36.2828 23.5055L36.2831 23.5054L36.2271 22.9751ZM22.7446 22.4685L22.799 22.999L22.8003 22.9989L22.7446 22.4685ZM36.0271 21.0724L35.9716 20.542L35.9714 20.542L36.0271 21.0724ZM22.561 22.4349L22.3215 22.9115L22.3215 22.9115L22.561 22.4349ZM22.3857 22.131L21.8537 22.0934L21.8537 22.0934L22.3857 22.131ZM22.4514 21.9599L22.8731 22.2865L22.8731 22.2864L22.4514 21.9599ZM24.9468 18.7359L24.5251 18.4094L24.5251 18.4094L24.9468 18.7359ZM25.147 18.5644L24.8884 18.098L24.8884 18.098L25.147 18.5644ZM25.4002 18.4845L25.3445 17.954L25.3436 17.9541L25.4002 18.4845ZM38.682 17.0885L38.6263 16.5581L38.6263 16.5581L38.682 17.0885ZM38.8659 17.1217L39.1049 16.6449L39.1045 16.6447L38.8659 17.1217ZM39.0005 17.2478L39.4624 16.9813L39.4618 16.9802L39.0005 17.2478ZM39.0416 17.4257L38.5096 17.3883L38.5096 17.3883L39.0416 17.4257ZM38.976 17.5969L39.3978 17.9233L39.3979 17.9232L38.976 17.5969ZM36.4819 20.8208L36.9037 21.1473L36.9038 21.1472L36.4819 20.8208ZM15.0303 40.4711C15.4448 40.8067 15.4446 40.807 15.4443 40.8073C15.4443 40.8074 15.444 40.8077 15.4439 40.8078C15.4436 40.8081 15.4434 40.8084 15.4432 40.8087C15.4428 40.8092 15.4425 40.8096 15.4423 40.8098C15.4419 40.8102 15.442 40.8101 15.4426 40.8094C15.4438 40.808 15.447 40.8043 15.4522 40.7985C15.4626 40.7868 15.4811 40.7666 15.5085 40.7388C15.5632 40.6832 15.6531 40.5972 15.7836 40.489C16.0443 40.2726 16.4679 39.9661 17.0967 39.6346C18.3534 38.9719 20.4387 38.2044 23.694 37.8623L23.5825 36.8015C20.2076 37.1562 17.9889 37.9583 16.5992 38.691C15.9048 39.0572 15.4196 39.4048 15.1023 39.6682C14.9438 39.7998 14.8274 39.9101 14.748 39.9908C14.7084 40.0311 14.6779 40.064 14.6561 40.0885C14.6452 40.1007 14.6365 40.1109 14.6298 40.1187C14.6264 40.1227 14.6236 40.126 14.6213 40.1288C14.6201 40.1302 14.6191 40.1315 14.6182 40.1326C14.6177 40.1331 14.6173 40.1336 14.6169 40.1341C14.6167 40.1344 14.6165 40.1347 14.6164 40.1348C14.6161 40.1351 14.6159 40.1354 15.0303 40.4711ZM11.7125 14.0062L14.4999 40.5268L15.5607 40.4153L12.7733 13.8947L11.7125 14.0062ZM20.7951 10.2809C17.4202 10.6356 15.2015 11.4377 13.8118 12.1705C13.1174 12.5366 12.6322 12.8843 12.3149 13.1476C12.1564 13.2792 12.04 13.3895 11.9606 13.4702C11.9209 13.5105 11.8905 13.5435 11.8687 13.5679C11.8578 13.5802 11.849 13.5903 11.8423 13.5981C11.839 13.6021 11.8362 13.6054 11.8339 13.6082C11.8327 13.6096 11.8317 13.6109 11.8308 13.612C11.8303 13.6125 11.8299 13.6131 11.8295 13.6135C11.8293 13.6138 11.829 13.6141 11.8289 13.6142C11.8287 13.6145 11.8284 13.6149 12.2429 13.9505C12.6574 14.2861 12.6571 14.2864 12.6569 14.2867C12.6568 14.2868 12.6566 14.2871 12.6565 14.2872C12.6562 14.2876 12.656 14.2879 12.6558 14.2881C12.6553 14.2886 12.655 14.289 12.6549 14.2892C12.6545 14.2897 12.6546 14.2895 12.6552 14.2888C12.6564 14.2874 12.6596 14.2837 12.6648 14.2779C12.6752 14.2662 12.6937 14.246 12.7211 14.2182C12.7757 14.1626 12.8657 14.0767 12.9961 13.9684C13.2569 13.752 13.6805 13.4455 14.3093 13.114C15.566 12.4514 17.6513 11.6839 20.9066 11.3417L20.7951 10.2809ZM30.0685 11.579C27.1998 10.7672 24.2265 9.92024 20.7951 10.2809L20.9066 11.3417C24.1053 11.0055 26.8894 11.7879 29.7781 12.6054L30.0685 11.579ZM38.94 12.8427C35.7413 13.1789 32.9572 12.3965 30.0685 11.579L29.7781 12.6054C32.6468 13.4172 35.6201 14.2642 39.0515 13.9035L38.94 12.8427ZM47.6037 10.2339C47.1892 9.89829 47.1894 9.898 47.1897 9.89771C47.1897 9.89763 47.19 9.89735 47.1901 9.89719C47.1904 9.89686 47.1906 9.89657 47.1908 9.89631C47.1912 9.8958 47.1915 9.89543 47.1917 9.89521C47.1921 9.89477 47.192 9.89491 47.1914 9.89562C47.1902 9.89704 47.187 9.90073 47.1818 9.90656C47.1714 9.91821 47.1529 9.93843 47.1255 9.96623C47.0709 10.0218 46.9809 10.1078 46.8505 10.216C46.5897 10.4324 46.1661 10.7389 45.5373 11.0704C44.2806 11.7331 42.1953 12.5006 38.94 12.8427L39.0515 13.9035C42.4264 13.5488 44.6451 12.7467 46.0348 12.014C46.7292 11.6478 47.2144 11.3002 47.5317 11.0368C47.6902 10.9052 47.8066 10.7949 47.886 10.7142C47.9257 10.6739 47.9561 10.641 47.9779 10.6165C47.9888 10.6043 47.9976 10.5942 48.0042 10.5863C48.0076 10.5824 48.0104 10.579 48.0127 10.5762C48.0139 10.5748 48.0149 10.5735 48.0158 10.5724C48.0163 10.5719 48.0167 10.5714 48.0171 10.5709C48.0173 10.5707 48.0176 10.5703 48.0176 10.5702C48.0179 10.5699 48.0182 10.5696 47.6037 10.2339ZM50.9215 36.6988L48.1341 10.1782L47.0733 10.2897L49.8607 36.8103L50.9215 36.6988ZM41.839 40.4241C45.2138 40.0694 47.4325 39.2673 48.8222 38.5346C49.5166 38.1684 50.0018 37.8208 50.3191 37.5574C50.4777 37.4258 50.594 37.3155 50.6734 37.2348C50.7131 37.1945 50.7435 37.1615 50.7653 37.1371C50.7762 37.1249 50.785 37.1147 50.7917 37.1069C50.795 37.1029 50.7978 37.0996 50.8002 37.0968C50.8013 37.0954 50.8023 37.0941 50.8032 37.093C50.8037 37.0925 50.8041 37.092 50.8045 37.0915C50.8047 37.0912 50.805 37.0909 50.8051 37.0908C50.8053 37.0905 50.8056 37.0901 50.3911 36.7545C49.9766 36.4189 49.9769 36.4186 49.9771 36.4183C49.9772 36.4182 49.9774 36.4179 49.9775 36.4178C49.9778 36.4174 49.978 36.4171 49.9782 36.4169C49.9787 36.4164 49.979 36.416 49.9792 36.4158C49.9795 36.4154 49.9794 36.4155 49.9788 36.4162C49.9776 36.4176 49.9744 36.4213 49.9692 36.4271C49.9588 36.4388 49.9403 36.459 49.913 36.4868C49.8583 36.5424 49.7683 36.6283 49.6379 36.7366C49.3772 36.953 48.9535 37.2595 48.3247 37.591C47.068 38.2536 44.9827 39.0211 41.7275 39.3633L41.839 40.4241ZM32.5655 39.126C35.4342 39.9378 38.4076 40.7848 41.839 40.4241L41.7275 39.3633C38.5287 39.6995 35.7447 38.9171 32.8559 38.0996L32.5655 39.126ZM23.694 37.8623C26.8927 37.5261 29.6768 38.3085 32.5655 39.126L32.8559 38.0996C29.9872 37.2878 27.0139 36.4408 23.5825 36.8015L23.694 37.8623ZM39.7244 28.4047L37.2303 31.6286L38.074 32.2813L40.5681 29.0574L39.7244 28.4047ZM39.6798 28.5224C39.6829 28.4782 39.6991 28.4374 39.7243 28.4048L40.5681 29.0573C40.6703 28.9252 40.732 28.7654 40.7439 28.5971L39.6798 28.5224ZM39.7087 28.6484C39.6871 28.6109 39.6767 28.5669 39.6798 28.5224L40.7439 28.5971C40.7557 28.4286 40.7167 28.261 40.6327 28.1154L39.7087 28.6484ZM39.7971 28.7325C39.7618 28.7148 39.7308 28.6865 39.7094 28.6496L40.632 28.1142C40.5479 27.9694 40.4235 27.8533 40.2751 27.779L39.7971 28.7325ZM39.908 28.753C39.8709 28.7569 39.8326 28.7503 39.7976 28.7328L40.2746 27.7787C40.1265 27.7047 39.9604 27.6749 39.7965 27.6922L39.908 28.753ZM26.6262 30.149L39.908 28.753L39.7965 27.6922L26.5147 29.0881L26.6262 30.149ZM26.5759 30.1649C26.5913 30.1564 26.6087 30.1508 26.6271 30.1489L26.5138 29.0882C26.3542 29.1053 26.1993 29.1541 26.0586 29.2321L26.5759 30.1649ZM26.5388 30.1965C26.5481 30.1844 26.5606 30.1734 26.5759 30.165L26.0586 29.2321C25.9179 29.3101 25.7941 29.4159 25.6954 29.5435L26.5388 30.1965ZM24.0426 33.4206L26.5388 30.1965L25.6954 29.5435L23.1992 32.7676L24.0426 33.4206ZM24.0873 33.3027C24.0842 33.3471 24.0679 33.3879 24.0426 33.4206L23.1992 32.7676C23.0969 32.8997 23.035 33.0596 23.0232 33.2281L24.0873 33.3027ZM24.0582 33.1763C24.08 33.2141 24.0904 33.2582 24.0873 33.3027L23.0232 33.2281C23.0114 33.3966 23.0504 33.5643 23.1347 33.7101L24.0582 33.1763ZM23.9697 33.0925C24.005 33.1101 24.0364 33.1387 24.0582 33.1763L23.1347 33.7101C23.2189 33.8558 23.3438 33.972 23.4922 34.0463L23.9697 33.0925ZM23.8591 33.0721C23.8962 33.0682 23.9345 33.0748 23.9696 33.0924L23.4923 34.0463C23.6406 34.1205 23.8067 34.1502 23.9706 34.133L23.8591 33.0721ZM37.1416 31.6761L23.8591 33.0721L23.9706 34.133L37.2531 32.7369L37.1416 31.6761ZM37.1932 31.66C37.1778 31.6686 37.1603 31.6741 37.1419 31.6761L37.2528 32.7369C37.413 32.7202 37.5684 32.6715 37.7095 32.5934L37.1932 31.66ZM37.2304 31.6285C37.2211 31.6405 37.2086 31.6515 37.1932 31.66L37.7095 32.5934C37.8506 32.5154 37.9748 32.4094 38.0739 32.2814L37.2304 31.6285ZM37.0689 22.7196C36.9454 22.6149 36.8018 22.5371 36.6476 22.4901L36.3366 23.5104C36.3535 23.5156 36.368 23.5237 36.3796 23.5336L37.0689 22.7196ZM40.1789 25.3545L37.069 22.7197L36.3795 23.5335L39.4894 26.1684L40.1789 25.3545ZM40.4465 25.7682C40.4 25.606 40.3063 25.4626 40.179 25.3547L39.4892 26.1683C39.4578 26.1416 39.4335 26.1051 39.4213 26.0625L40.4465 25.7682ZM40.4379 26.2625C40.4898 26.1026 40.4931 25.9306 40.4465 25.7682L39.4213 26.0625C39.4089 26.0196 39.41 25.9745 39.4234 25.9332L40.4379 26.2625ZM40.1582 26.6659C40.2878 26.5624 40.3854 26.423 40.4375 26.2638L39.4238 25.9319C39.4371 25.8914 39.4615 25.8572 39.4923 25.8326L40.1582 26.6659ZM39.708 26.8503C39.8719 26.8331 40.0282 26.7696 40.1578 26.6662L39.4927 25.8323C39.5234 25.8078 39.5595 25.7934 39.5965 25.7895L39.708 26.8503ZM26.4262 28.2463L39.708 26.8503L39.5965 25.7895L26.3147 27.1855L26.4262 28.2463ZM25.9502 28.2003C26.1039 28.2473 26.2656 28.2629 26.4254 28.2464L26.3155 27.1854C26.2972 27.1873 26.279 27.1855 26.2621 27.1803L25.9502 28.2003ZM25.5301 27.9713C25.6533 28.0756 25.7964 28.1533 25.9501 28.2003L26.2623 27.1803C26.2455 27.1752 26.231 27.167 26.2193 27.1572L25.5301 27.9713ZM22.4182 25.3366L25.5301 27.9713L26.2193 27.1572L23.1074 24.5225L22.4182 25.3366ZM22.1503 24.9228C22.1969 25.0851 22.2907 25.2286 22.4181 25.3366L23.1075 24.5226C23.1389 24.5492 23.1633 24.5858 23.1756 24.6286L22.1503 24.9228ZM22.1591 24.4281C22.107 24.5883 22.1037 24.7604 22.1503 24.9228L23.1756 24.6286C23.1879 24.6715 23.1869 24.7167 23.1734 24.7582L22.1591 24.4281ZM22.4389 24.0249C22.3092 24.1285 22.2112 24.2681 22.1591 24.4281L23.1734 24.7583C23.1599 24.7996 23.1352 24.834 23.1043 24.8586L22.4389 24.0249ZM22.8888 23.8407C22.725 23.8579 22.5686 23.9214 22.4389 24.0249L23.1043 24.8586C23.0735 24.8832 23.0373 24.8976 23.0003 24.9015L22.8888 23.8407ZM36.1713 22.4447L22.8888 23.8407L23.0003 24.9015L36.2828 23.5055L36.1713 22.4447ZM36.6475 22.4901C36.4933 22.4431 36.3312 22.4278 36.171 22.4447L36.2831 23.5054C36.3015 23.5035 36.3198 23.5053 36.3367 23.5105L36.6475 22.4901ZM22.8003 22.9989L36.0829 21.6028L35.9714 20.542L22.6888 21.938L22.8003 22.9989ZM22.3215 22.9115C22.4695 22.9859 22.6354 23.0158 22.799 22.999L22.6901 21.9379C22.727 21.9341 22.7653 21.9407 22.8005 21.9584L22.3215 22.9115ZM21.9647 22.5751C22.0487 22.7207 22.1733 22.837 22.3215 22.9115L22.8005 21.9584C22.8357 21.9761 22.8671 22.0047 22.8888 22.0423L21.9647 22.5751ZM21.8537 22.0934C21.8418 22.2618 21.8807 22.4293 21.9647 22.5751L22.8888 22.0423C22.9106 22.0801 22.9209 22.1241 22.9177 22.1686L21.8537 22.0934ZM22.0297 21.6334C21.9275 21.7654 21.8656 21.9251 21.8537 22.0934L22.9177 22.1686C22.9146 22.213 22.8984 22.2538 22.8731 22.2865L22.0297 21.6334ZM24.5251 18.4094L22.0296 21.6335L22.8731 22.2864L25.3686 19.0623L24.5251 18.4094ZM24.8884 18.098C24.7477 18.176 24.6239 18.2818 24.5251 18.4094L25.3685 19.0624C25.3779 19.0503 25.3904 19.0393 25.4057 19.0308L24.8884 18.098ZM25.3436 17.9541C25.1839 17.9712 25.029 18.02 24.8884 18.098L25.4056 19.0309C25.421 19.0223 25.4385 19.0167 25.4569 19.0148L25.3436 17.9541ZM38.6263 16.5581L25.3445 17.9541L25.456 19.0149L38.7378 17.6189L38.6263 16.5581ZM39.1045 16.6447C38.9562 16.5705 38.7901 16.5409 38.6263 16.5581L38.7378 17.6189C38.7007 17.6228 38.6624 17.6162 38.6273 17.5987L39.1045 16.6447ZM39.4618 16.9802C39.3777 16.8353 39.2532 16.7192 39.1049 16.6449L38.6269 17.5985C38.5916 17.5807 38.5606 17.5524 38.5392 17.5155L39.4618 16.9802ZM39.5736 17.463C39.5855 17.2945 39.5464 17.1269 39.4624 16.9813L38.5385 17.5144C38.5168 17.4768 38.5064 17.4328 38.5096 17.3883L39.5736 17.463ZM39.3979 17.9232C39.5 17.7911 39.5618 17.6313 39.5736 17.463L38.5096 17.3883C38.5127 17.3441 38.5288 17.3033 38.5541 17.2707L39.3979 17.9232ZM36.9038 21.1472L39.3978 17.9233L38.5542 17.2706L36.0601 20.4945L36.9038 21.1472ZM36.5393 21.4593C36.6803 21.3813 36.8046 21.2753 36.9037 21.1473L36.0602 20.4944C36.0509 20.5064 36.0384 20.5174 36.0229 20.5259L36.5393 21.4593ZM36.0827 21.6028C36.2427 21.5861 36.3981 21.5374 36.5393 21.4593L36.0229 20.5259C36.0076 20.5344 35.9901 20.54 35.9716 20.542L36.0827 21.6028Z" fill="black"/>
<defs>
<linearGradient id="paint0_linear_102_23" x1="15.0285" y1="40.2836" x2="47.6306" y2="10.6601" gradientUnits="userSpaceOnUse">
<stop stop-color="#9945FF"/>
<stop offset="0.776042" stop-color="#14F195"/>
</linearGradient>
</defs>
</svg>
